<?xml version="1.0" encoding="utf-8"?>
<!-- Generator: Adobe Illustrator 25.0.0, SVG Export Plug-In . SVG Version: 6.00 Build 0)  -->
<svg version="1.1" xmlns="http://www.w3.org/2000/svg" xmlns:xlink="http://www.w3.org/1999/xlink" x="0px" y="0px"
	 viewBox="0 0 500 500" style="enable-background:new 0 0 500 500;" xml:space="preserve">
<style type="text/css">
	.st0{fill:#666E8C;}
	.st1{fill:#8B94B2;}
	.st2{fill:#FDFFA9;}
	.st3{fill:#393E4F;}
	.st4{fill:#4A4F5E;}
	.st5{fill:#343C4D;}
	.st6{fill:#A76929;}
	.st7{fill:#7B4F2A;}
	.st8{fill:none;stroke:#7B4F2A;stroke-width:2;stroke-linecap:round;stroke-linejoin:round;stroke-miterlimit:10;}
	.st9{fill:#AE6BA1;}
	.st10{fill:#985A88;}
	.st11{fill:#64221B;}
	.st12{fill:#FFA98B;}
	.st13{fill:#DC7D6B;}
	.st14{fill:#FFFFFF;}
	.st15{fill:none;stroke:#E3E3E3;stroke-miterlimit:10;}
	.st16{fill:#633B15;}
	.st17{fill:#C49145;}
	.st18{fill:#433856;}
	.st19{fill:none;stroke:#615494;stroke-miterlimit:10;}
	.st20{fill:#418C75;}
	.st21{fill:none;stroke:#DC7D6B;stroke-miterlimit:10;}
	.st22{fill:#623127;}
	.st23{fill:#343B4D;}
	.st24{fill:#613626;}
	.st25{fill:#502C26;}
	.st26{fill:none;stroke:#3F2226;stroke-miterlimit:10;}
	.st27{fill:#C23243;}
	.st28{display:none;fill:#000644;}
	.st29{fill:#706354;}
	.st30{fill:#A92839;}
	.st31{fill:#F7F2B0;}
	.st32{clip-path:url(#SVGID_2_);fill:#747474;}
	.st33{clip-path:url(#SVGID_2_);}
	.st34{fill:#747474;}
</style>
<g id="BG">
	<path class="st0" d="M339.5,474.7H164.9c-38.8,0-70.2-31.4-70.2-70.2V246.6c0-38.8,31.4-70.2,70.2-70.2h174.6
		c38.8,0,70.2,31.4,70.2,70.2v157.9C409.7,443.3,378.3,474.7,339.5,474.7z"/>
	<path class="st0" d="M296.2,473.8h-247c-20.7,0-37.4-16.8-37.4-37.4v0c0-20.7,16.8-37.4,37.4-37.4h247V473.8z"/>
	<path class="st0" d="M338.3,403h-247c-20.7,0-37.4-16.8-37.4-37.4v0c0-20.7,16.8-37.4,37.4-37.4h247V403z"/>
	<path class="st0" d="M290.9,328.9h-247c-20.7,0-37.4-16.8-37.4-37.4v0c0-20.7,16.8-37.4,37.4-37.4h247V328.9z"/>
	<path class="st0" d="M353.2,255.9h-247c-20.7,0-37.4-16.8-37.4-37.4v0c0-20.7,16.8-37.4,37.4-37.4h247V255.9z"/>
	<path class="st0" d="M290.6,189.1h-247c-20.7,0-37.4-16.8-37.4-37.4v0c0-20.7,16.8-37.4,37.4-37.4h247V189.1z"/>
	<path class="st0" d="M369.8,122.7h-247c-20.7,0-37.4-16.8-37.4-37.4v0c0-20.7,16.8-37.4,37.4-37.4h247V122.7z"/>
	<path class="st0" d="M307.1,79.4h-247c-20.7,0-37.4-16.8-37.4-37.4v0c0-20.7,16.8-37.4,37.4-37.4h247V79.4z"/>
	<path class="st0" d="M194.4,474.6h247c20.7,0,37.4-16.8,37.4-37.4v0c0-20.7-16.8-37.4-37.4-37.4h-247V474.6z"/>
	<path class="st0" d="M152.4,403.8h247c20.7,0,37.4-16.8,37.4-37.4v0c0-20.7-16.8-37.4-37.4-37.4h-247V403.8z"/>
	<path class="st0" d="M164.9,328.9h247c20.7,0,37.4-16.8,37.4-37.4v0c0-20.7-16.8-37.4-37.4-37.4h-247V328.9z"/>
	<path class="st0" d="M159.1,255.9h247c20.7,0,37.4-16.8,37.4-37.4v0c0-20.7-16.8-37.4-37.4-37.4h-247V255.9z"/>
	<path class="st0" d="M200.1,190h247c20.7,0,37.4-16.8,37.4-37.4v0c0-20.7-16.8-37.4-37.4-37.4h-247V190z"/>
	<path class="st0" d="M120.8,123.5h247c20.7,0,37.4-16.8,37.4-37.4v0c0-20.7-16.8-37.4-37.4-37.4h-247V123.5z"/>
	<path class="st0" d="M164.8,79.4h247c20.7,0,37.4-16.8,37.4-37.4v0c0-20.7-16.8-37.4-37.4-37.4h-247V79.4z"/>
	<path class="st1" d="M438.3,131.4h-67.8c-7.8,0-14.1-6.3-14.1-14.1v0c0-7.8,6.3-14.1,14.1-14.1h67.8c7.8,0,14.1,6.3,14.1,14.1v0
		C452.4,125.1,446.1,131.4,438.3,131.4z"/>
	<path class="st1" d="M158.5,61.6H57.8c-11.6,0-20.9-9.4-20.9-20.9v0c0-11.6,9.4-20.9,20.9-20.9h100.7c11.6,0,20.9,9.4,20.9,20.9v0
		C179.4,52.2,170,61.6,158.5,61.6z"/>
	<path class="st1" d="M456.1,388H355.4c-11.6,0-20.9-9.4-20.9-20.9v0c0-11.6,9.4-20.9,20.9-20.9h100.7c11.6,0,20.9,9.4,20.9,20.9v0
		C477,378.7,467.6,388,456.1,388z"/>
	<path class="st1" d="M164.2,358.4H63.5c-11.6,0-20.9-9.4-20.9-20.9v0c0-11.6,9.4-20.9,20.9-20.9h100.7c11.6,0,20.9,9.4,20.9,20.9v0
		C185.1,349.1,175.8,358.4,164.2,358.4z"/>
	<path class="st1" d="M52.6,243.6H27.4c-11.6,0-20.9-9.4-20.9-20.9v0c0-11.6,9.4-20.9,20.9-20.9h25.1c11.6,0,20.9,9.4,20.9,20.9v0
		C73.5,234.2,64.1,243.6,52.6,243.6z"/>
	<path class="st1" d="M343.1,100.4H318c-11.6,0-20.9-9.4-20.9-20.9v0c0-11.6,9.4-20.9,20.9-20.9h25.1c11.6,0,20.9,9.4,20.9,20.9v0
		C364,91,354.7,100.4,343.1,100.4z"/>
	<path class="st1" d="M438.2,58.5h-25.1c-11.6,0-20.9-9.4-20.9-20.9v0c0-11.6,9.4-20.9,20.9-20.9h25.1c11.6,0,20.9,9.4,20.9,20.9v0
		C459.1,49.1,449.8,58.5,438.2,58.5z"/>
	<path class="st1" d="M66.4,453.6H41.3c-11.6,0-20.9-9.4-20.9-20.9v0c0-11.6,9.4-20.9,20.9-20.9h25.1c11.6,0,20.9,9.4,20.9,20.9v0
		C87.4,444.2,78,453.6,66.4,453.6z"/>
</g>
<g id="CLOUDS">
	<circle id="MOON" class="st2" cx="231.5" cy="85.2" r="43.2"/>
	<path id="C2" class="st3" d="M73.9,144.8l161.8-2.2c9.3-0.1,15.9-8.9,13-17.4c-4.8-14.1-14.5-30.7-32.5-24.2
		c-6,2.2-12.6-0.9-14.3-6.8c-5.7-19.7-20.4-51.1-51.5-18.5c-3.2,3.4-8.1,4.8-12.7,3.6c-13.2-3.4-39.2-6.7-38.4,19.5
		c0.2,5.6-5,10.1-10.8,9.1c-11.2-2-25.6,0.4-26.7,24.9C61.5,139.5,67,144.9,73.9,144.8z"/>
	<path id="C1" class="st3" d="M285.4,232.8l161.8-2.2c9.3-0.1,15.9-8.9,13-17.4c-4.8-14.1-14.5-30.7-32.5-24.2
		c-6,2.2-12.6-0.9-14.3-6.8c-5.7-19.7-20.4-51.1-51.5-18.5c-3.2,3.4-8.1,4.8-12.7,3.6c-13.2-3.4-39.2-6.7-38.4,19.5
		c0.2,5.6-5,10.1-10.8,9.1c-11.2-2-25.6,0.4-26.7,24.9C273,227.4,278.5,232.9,285.4,232.8z"/>
</g>
<g id="CHARACTERS">
	<g>
		<path class="st3" d="M141.1,430.1c-6.8,1.7-43.9-3.1-46.2,10.1c-2.3,13.2,11.7,10.7,19.3,16c7.6,5.4,24.9,1.6,34.2,1.2
			c9.3-0.3,16.4,5,26.6,3.4c10.2-1.7,15.7-4.7,25.9-8.1c10.2-3.4,14.8,0.6,32.1,0.8c17.3,0.2,24.6-4.6,34.7-1.4
			c10.1,3.2,14.8,1.5,25.8,0.3c11-1.2,20.8-8.6,27.9-5.4c7.2,3.2,18.6,3.7,30,3c11.4-0.8,20.7-0.7,30,1.2c9.3,1.9,28.8-5,30.1-13.3
			c1.4-8.3-21.9-11.7-36.2-12.3c-14.4-0.6-42.3,2.2-51.2,2.1c-8.9-0.1-26.3,5-33.8,1.4c-7.6-3.6-38.5,0.5-47.8,1.3
			c-9.3,0.8-34.3,2.7-41.4,1.3C193.9,430.2,147.9,428.4,141.1,430.1z"/>
		<g>
			<path class="st4" d="M396.9,285.7c0,0-25,1.9-33.9,1.8c-7.4-0.1-27.3,0.2-27.3,0.2s-0.6,17.7-1.1,22.1s0.8,28.9,1.1,37.6
				c0.3,8.7,3.2,29.5,4.5,37.8c1.3,8.3,5.8,27.8,5.8,27.8l11-1.8c0,0,0.5-10.5,0.8-13.6c0.6-5.1,2.4-13.2,3.4-22.5
				c0.9-7.9-0.4-18.3-0.4-22.5c0-2.7,2.8-15.1,5.2-25.6c1,7.5,2.2,15.5,2.7,19.7c1.1,8.6,6,29.1,8.1,37.2c2.1,8.1,8.4,27.1,8.4,27.1
				l10.8-2.8c0,0-0.5-10.5-0.5-13.6c0.1-5.1,1.1-13.3,1.2-22.7c0.1-8-2.1-18.1-2.5-22.3c-0.4-4.2,3.8-32.5,4.2-39.6
				C398.9,303.3,396.9,285.7,396.9,285.7z"/>
			<path class="st5" d="M398.4,310.4c0.4-7.1-1.5-24.6-1.5-24.6s-25,1.9-33.9,1.8c-7.4-0.1-27.3,0.2-27.3,0.2s-0.6,17.7-1.1,22.1
				c-0.3,2.6,0,11.7,0.4,20.6c6.6,0.8,17.6,1.9,29.9,1.7c0.4-1.7,0.7-3.3,1.1-4.9c0.2,1.6,0.5,3.3,0.7,4.9
				c9.8-0.2,20.3-1.3,29.7-3.9C397.3,320.8,398.2,313.5,398.4,310.4z"/>
			<g>
				<path class="st6" d="M377.5,429.4c3.3-2.7,6.2-9.4,6.8-11.8c0.7-2.4-2.2-13.7-2.2-13.7s3.1,0.5,6.4-0.2c2.9-0.6,5.9-2.3,7.3-3.5
					c0.6,5.4,1.5,14,2.2,16c0.8,2,2.7,5.5,3.2,8.8c0.5,3.6,0.5,6.5,0.2,9.5c-0.3,3-3.6,3.2-5.4,3.2c-1.8,0-1.4-1.5-1.4-1.5
					s-1.9,0.6-3.1,2.3c-1.2,1.8-3.1,3.4-11.4,5.7c-8.3,2.3-14.2-1.9-13-6.6C368.4,432.8,374.2,432.1,377.5,429.4z"/>
				<path class="st7" d="M389.5,438.2c2-3.3,5.3-5.2,9.9-6c0.8-0.1,1.5-0.4,2.2-0.8c0,1-0.1,2.1-0.2,3.1c-0.3,3-3.6,3.2-5.4,3.2
					c-1.8,0-1.4-1.5-1.4-1.5s-1.9,0.6-3.1,2.3c-1.2,1.8-3.1,3.4-11.4,5.7c-1.9,0.5-3.7,0.7-5.3,0.5
					C382.4,443.5,388.2,440.5,389.5,438.2z"/>
				<g>
					<g>
						<path class="st8" d="M383.9,415.5"/>
						<path class="st8" d="M384.1,412.4"/>
					</g>
				</g>
			</g>
			<g>
				<path class="st6" d="M336.7,430.3c3.5-2.4,7-8.8,7.9-11.1c0.9-2.4-0.9-13.9-0.9-13.9s3,0.8,6.4,0.5c2.9-0.3,6.1-1.7,7.6-2.8
					c0,5.5,0.1,14.1,0.7,16.2c0.6,2.1,2.2,5.7,2.3,9c0.2,3.6-0.1,6.5-0.7,9.5c-0.6,2.9-3.9,2.9-5.7,2.7c-1.8-0.2-1.2-1.6-1.2-1.6
					s-1.9,0.4-3.3,2c-1.4,1.6-3.4,3.1-11.9,4.6c-8.5,1.5-13.9-3.2-12.3-7.8C327.2,432.8,333.1,432.7,336.7,430.3z"/>
				<path class="st7" d="M347.8,440.2c2.3-3.1,5.7-4.7,10.4-5c0.8-0.1,1.6-0.3,2.3-0.6c-0.1,1-0.3,2-0.5,3c-0.6,2.9-3.9,2.9-5.7,2.7
					c-1.8-0.2-1.2-1.6-1.2-1.6s-1.9,0.4-3.3,2c-1.4,1.6-3.4,3.1-11.9,4.6c-1.9,0.3-3.7,0.3-5.3,0
					C340.1,444.9,346.2,442.4,347.8,440.2z"/>
			</g>
		</g>
		<g>
			<g>
				<path class="st9" d="M332.4,324.1c2.2,3.1,28,2.2,37,1.7s28.6-3.1,31.1-6.2s-3-42.1-3.6-48.5c-0.6-6.3,1.3-35.6,1.3-43.8
					c0-23.1-1.2-27.7-5.4-31.4c-4.2-3.7-16.1-6.1-22.7-6.6c-6.6-0.6-24.8-0.3-29.3,6.1c-4.5,6.3-6.6,13.8-8.1,19.3
					c-1.5,5.5,1,29.4,1.6,34.9C334.9,255,330.1,321,332.4,324.1z"/>
				<path class="st10" d="M339.4,261c3.1-0.8,5,1.7,8.1,3.6s33.3,16,46,10.4c1.3-0.6,2.5-1.2,3.6-1.9c-0.1-0.8-0.2-1.5-0.2-2
					c-0.6-6.3,1.3-35.6,1.3-43.8c0-13.8-0.4-21-1.7-25.3c-6.9-1.9-14.2-1.8-14.2-1.8s-8.7,4.8-8.4,20.5c0.3,15.7,0.3,19.3,0.3,19.3
					s-27.2-6.2-29.1,3.6c-1.1,5.3-6.5,3-11.3-0.3c0.3,2.7,0.5,5,0.6,6.2c0.1,1.2,0,5.4-0.3,11.3C335.8,261.2,337.9,261.4,339.4,261z
					"/>
			</g>
			<g>
				<path class="st11" d="M353.9,190.9c-7.2,0.9-10,0.2-12.3-3.5c-2.3-3.7,1.6-9.9,1.5-13c-0.1-5.8-1.6-8.9-1.3-13.3
					c0.3-4.4,2.3-12.5,4.3-15.5c8-11.8,23-8.4,23-8.4c5.3,2.7-5.7,45.1-5.7,45.1S361.1,190,353.9,190.9z"/>
				<g>
					<path class="st12" d="M355.6,182.3l-0.7,12.2c0,0,2.1,6.8,8,6.2c5.9-0.6,10.8-9.3,10.8-9.3l-4.8-13.6L355.6,182.3z"/>
					<g>
						<path class="st12" d="M366.6,138.9c-9.2-1.1-16.6,4.8-19.9,12.3c-3.2,7.2-2.3,16.9-0.9,21.2c1.4,4.3,4.1,12.6,13.6,11.9
							c9.4-0.7,18-9.5,19.8-19.7C380.9,154.3,376.2,140,366.6,138.9z"/>
						<g>
							<g>
								<path class="st13" d="M354.6,163.8c0.2,1.2,0.1,2.3,0.1,3.5c0,0.6-0.1,1.1-0.2,1.7c-0.1,0.3-0.1,0.5-0.2,0.9
									c-0.1,0.3-0.2,0.6-0.3,0.9c-0.2,0.5-0.4,1-0.5,1.2c0,0.2,0,0.4,0.3,0.8c0.6,0.7,1.2,1.5,2.4,1.7c-0.5,0.5-1.2,0.6-1.9,0.5
									c-0.7-0.1-1.3-0.4-1.8-0.8c-0.3-0.2-0.5-0.5-0.8-0.8c-0.2-0.4-0.4-0.9-0.4-1.3c0-0.9,0.4-1.5,0.6-2c0.2-0.5,0.4-0.8,0.5-1.4
									c0.2-0.5,0.4-1.1,0.6-1.6C353.6,165.9,354,164.8,354.6,163.8z"/>
							</g>
						</g>
					</g>
					<g>
						<path class="st14" d="M371.9,174.1c0.2-1.8-0.1-4.8-0.1-4.8s-3.5,1.1-6.7,1.2c-3.2,0.1-9.5-2.1-11.8-2.4
							c-1.2-0.2-2.4,1-4.2,1.4c-1.7,0.3-3.2,0.7-4,0.6c0,0,0.3,4.8,2,8c2.3,4.3,6.9,6.3,11.1,6.6c4.1,0.3,11.4-3.2,13.8-6.3
							C372.2,178.4,371.8,175.9,371.9,174.1z"/>
						<path class="st14" d="M381.4,162.9c0,0-2.6,1.7-4.8,4s-5.1,6-5.1,6l-0.2-3.1c0,0,3.9-3.5,6-5.2
							C379.2,162.8,381.4,162.9,381.4,162.9z"/>
						<path class="st14" d="M377.5,173.4c-1.7,1.8-4.5,4.7-6.3,5.1l-0.3-1.1c0,0,2.5-1.5,5.3-3.6
							C376.5,173.8,377.2,173.4,377.5,173.4z"/>
						<g>
							<path class="st15" d="M346.1,171.8c0,0,4.1-0.4,5.8-1.4c1.7-0.9,2.9-0.3,4.8,0.3c1.9,0.6,9.1,2.5,14,0.7"/>
							<path class="st15" d="M352,177c0,0,3.6,2.5,4.4,4.8"/>
						</g>
					</g>
					<path class="st11" d="M348.7,147.3c0.2-2.3,0.9-4.5,2.4-5.9c7.9-7.2,24.4-4.9,29.6,0.9c3.3,3.7,4.8,7.2,5.5,10.5
						c1.3,5.7,1.7,13.7,3.1,16.9c1.4,3.2,4.3,13.6,1.7,16.4c-2.7,2.8-3.7,0.4-4.9,2.4c-1.2,2-4.1,4.6-5.7,5.6
						c-1.7,1-6.3,2.8-9.4,1.1c-3.1-1.7-3.1-6.9-2.2-9.9c0.8-3.1,2.9-5.2,3.5-8c0.6-2.8,0.2-9.7,0-12.1c-0.6-7.8-4.7-9.9-6.2-9.3
						c-1.5,0.6-2.1,1.7-4.6,1.1c-2.5-0.6-3.8-3.4-5.3-3.6s-2.5,1.1-4.2,0.3C350.3,152.8,348.5,151.1,348.7,147.3z"/>
				</g>
			</g>
			<path class="st12" d="M336.3,194c0,0-2-3.6-1.2-6.1c0.8-2.5,3.2-3.5,4.1-1.1c0.9,2.4,2.5,3.6,2.2,5.7
				C341,194.6,337,194.4,336.3,194z"/>
		</g>
		<g>
			<g>
				<g>
					<path class="st16" d="M243.6,437.3c0.1-2.3-0.7-6.2-0.6-9.8c0.2-5.7-0.6-8.9-0.6-8.9s-3.1,1.3-8.2,1.3c-5.1,0-6.1-1.5-6.1-1.5
						s-1.1,3.7-2.5,7.1c-1.6,3.9-4.2,7.4-5.6,10.3c-0.9,1.8-0.6,6.2,1.3,8.2c1.2,1.2,3.1,2.1,6.1,2.4c7,0.7,12-0.3,14.5-3.1
						C243.1,441.8,243.5,439.2,243.6,437.3z"/>
					<path class="st17" d="M225.6,442.6c-3.8-0.8-5.5-1.9-6.2-2.8c0.2,1.6,0.8,3.3,1.8,4.3c1.2,1.2,3.1,2.1,6.1,2.4
						c7,0.7,12-0.3,14.5-3.1c0.7-0.8,1.2-2,1.4-3.2C240.6,442.4,234.4,444.4,225.6,442.6z"/>
				</g>
				<g>
					<path class="st16" d="M265.3,437.3c-0.1-2.3,0.7-6.2,0.6-9.8c-0.2-5.7,0.6-8.9,0.6-8.9s3.1,1.3,8.2,1.3c5.1,0,6.1-1.5,6.1-1.5
						s1.1,3.7,2.5,7.1c1.6,3.9,4.2,7.4,5.6,10.3c0.9,1.8,0.6,6.2-1.3,8.2c-1.2,1.2-3.1,2.1-6.1,2.4c-7,0.7-12-0.3-14.5-3.1
						C265.8,441.8,265.4,439.2,265.3,437.3z"/>
					<path class="st17" d="M283.2,442.6c3.8-0.8,5.5-1.9,6.2-2.8c-0.2,1.6-0.8,3.3-1.8,4.3c-1.2,1.2-3.1,2.1-6.1,2.4
						c-7,0.7-12-0.3-14.5-3.1c-0.7-0.8-1.2-2-1.4-3.2C268.3,442.4,274.5,444.4,283.2,442.6z"/>
				</g>
			</g>
			<path class="st18" d="M287.7,269.4l-33.2,1.9l-33.2-1.9c0,0-4.5,18.8-3,38.2c1.5,19.4,0.3,34.4,1.2,43.6
				c0.8,8.1,1.8,25.8,2.3,37.6c0.5,11.7,1.2,30.2,1.2,30.2s3.5,2.5,9.8,2.9c4.7,0.3,12.1-1.9,12.1-1.9s3.2-29.9,4-38.6
				c0.9-8.7,0-29,0-29s3.4-21.8,5.4-38.4c2.1,16.6,5.4,38.4,5.4,38.4s-0.9,20.4,0,29c0.9,8.7,4,38.6,4,38.6s7.4,2.1,12.1,1.9
				c6.4-0.3,9.8-2.9,9.8-2.9s-0.2-18.4,0.3-30.2c0.5-11.7,1.5-29.4,2.3-37.6c0.9-9.2,0.7-24.2,2.2-43.6
				C292.1,288.2,287.7,269.4,287.7,269.4z"/>
			<g>
				<path class="st19" d="M223.6,415c0,0,7.3,4.5,21.3,0.3"/>
				<path class="st19" d="M285.3,415c0,0-7.3,4.5-21.3,0.3"/>
			</g>
			<g>
				<path class="st20" d="M296.2,187.8c-10.1-15.4-30.3-14-41.8-14s-31.7-1.5-41.8,14c-5.3,8.1,3.6,69.5,3.6,76.8
					c0,7.3-0.6,19.7,0.3,23c0.9,3.3,12.2,6.8,15.6,8.1c3.3,1.3,15.8,3.4,22.3,3.4c6.4,0,19-2.1,22.3-3.4c3.4-1.3,14.7-4.8,15.6-8.1
					c0.9-3.3,0.3-15.7,0.3-23C292.6,257.4,301.5,195.9,296.2,187.8z"/>
			</g>
			<g>
				<path class="st12" d="M246.5,160.3L243,178c0,0,3.5,5.3,11.4,5.2c7.9,0,10-5.1,10-5.1l-3.1-17.4L246.5,160.3z"/>
				<path class="st12" d="M232.5,150.4c1.3-1.2,3.8,0.4,4.3,0.7c0.1-2.9,0.3-5.6,0.6-7.1c1.4-5.9,10.3-12.6,17-12.6
					c6.7,0,15.6,6.8,17,12.6c0.4,1.6,0.6,4.2,0.6,7.1c0.4-0.3,3-1.9,4.3-0.7c1.9,1.8,1.7,4.5,0.6,6.7c-0.8,1.6-3.3,3.7-5.2,4.4
					c-0.2,2.1-5.4,13.6-17.3,13.6c-11.8,0-17-11.5-17.3-13.6c-1.9-0.7-4.4-2.7-5.2-4.4C230.9,155,230.7,152.2,232.5,150.4z"/>
				<g>
					<path class="st13" d="M255.3,154.9c0.2,1.1,0.3,2.2,0.4,3.3c0.1,0.5,0.1,1.1,0.2,1.5c0,0.2,0.1,0.3,0.2,0.5
						c0.1,0.1,0.2,0.3,0.4,0.5c0.3,0.4,0.7,0.9,1,1.7c0.1,0.4,0.2,0.9,0.1,1.3c-0.1,0.4-0.3,0.8-0.5,1.1c-0.4,0.5-0.8,0.9-1.4,1.2
						c-0.5,0.3-1.1,0.6-1.7,0.6c0.6-1,1.1-1.9,1.5-2.8c0.2-0.4,0.1-0.5,0.1-0.7c-0.1-0.2-0.4-0.6-0.7-1.1c-0.2-0.3-0.4-0.5-0.5-0.9
						c-0.1-0.4-0.2-0.8-0.2-1.1c0-0.6,0.1-1.2,0.2-1.8C254.4,157,254.8,155.9,255.3,154.9z"/>
				</g>
				<path class="st21" d="M263,173.9c-5.8,3.2-13.4,3.1-18.7-0.9"/>
				<g>
					<path class="st14" d="M237.6,153.6c0,0,1.3,2.7,1.9,4.6c0.6,1.9,1,5.1,1,5.1l0.7-3.9c0,0-1-3.3-1.8-4.6
						C238.8,153.5,237.6,153.6,237.6,153.6z"/>
					<path class="st14" d="M236.2,161.1c0.4,1.6,1,3.3,2.2,4.1l0.6-0.9c0,0-0.7-1.1-1.4-2.5C237.1,161.6,236.6,161.4,236.2,161.1z"
						/>
				</g>
				<g>
					<path class="st14" d="M268.6,161.4c-0.4-1.3-1.1-2.7-1.1-2.7s-9.2,1.6-13.1,1.6c-3.9,0-13.1-1.6-13.1-1.6s-0.7,1.3-1.1,2.7
						c-0.4,1.3-1.8,3.1-1.8,3.1s0.9,3.8,5.1,7.1c3.1,2.4,7.5,4.3,10.9,4.3c3.4,0,7.8-1.9,10.9-4.3c4.2-3.3,5.1-7.1,5.1-7.1
						S269,162.7,268.6,161.4z"/>
					<path class="st15" d="M241.7,160.7c0,0,8.3,1.9,13.3,1.8c4.9-0.1,12.2-1.7,12.2-1.7"/>
					<path class="st15" d="M254.3,172c0,0,1.2-2.5,2.9-3.9"/>
					<path class="st14" d="M271,153.6c0,0-1.3,2.7-1.9,4.6c-0.6,1.9-1,5.1-1,5.1l-0.7-3.9c0,0,1-3.3,1.8-4.6
						C269.8,153.5,271,153.6,271,153.6z"/>
					<path class="st14" d="M272.5,161.1c-0.4,1.6-1,3.3-2.2,4.1l-0.6-0.9c0,0,0.7-1.1,1.4-2.5C271.6,161.6,272.1,161.4,272.5,161.1z
						"/>
				</g>
				<g>
					<path class="st22" d="M235.6,150.9c-1-0.6-1.6-5.6,0.4-9.7c1.7-3.6,6.7,1.9,7.2,3.3c0.4,1.3-1.7,2.2-2.7,4.9
						c-0.7,1.7-1.1,3-1.6,3.6C236.9,155.6,236.5,151.5,235.6,150.9z"/>
					<path class="st22" d="M273.3,150.9c1-0.6,1.6-5.6-0.4-9.7c-1.7-3.6-6.7,1.9-7.2,3.3c-0.4,1.3,1.7,2.2,2.7,4.9
						c0.7,1.7,1.1,3,1.6,3.6C272,155.6,272.4,151.5,273.3,150.9z"/>
				</g>
				<path class="st22" d="M236.3,142.4c0,0-0.4-9.8,8.7-12.9c9.2-3.1,16.4-0.5,19.2,0c2.8,0.5,6-0.7,6.7,0c0.7,0.7,0.5,2.5-1.8,4.1
					c0,0,0.7,0.9,2.5,1.8c1.8,1,3.8,0.7,4.2,2.1c0.4,1.4-2.9,5.7-6.7,8.6c-3.8,2.9-6,3.1-9.8,2.4c-3.5-0.7-6-4.3-10-3.3
					c-4,1-7.8,1.6-9.9,0.9C237.3,145.6,236.3,142.4,236.3,142.4z"/>
			</g>
		</g>
		<g>
			<g>
				<g>
					<path class="st23" d="M185.8,443.1c-1.4-1.9-2.9-3.4-4.7-5.8c-0.9-1.1-2-3-2.8-4.2c-2.4-3.9-4.8-8.5-4.8-8.5s-5.5,0.3-8.7,0.1
						c-3.2-0.2-9.1-1.6-9.1-1.6s-1.6,8.9-1.5,11.8c0.1,3,0.9,5.9,3.5,7.4c2.3,1.3,6,5.3,7,6.7c2,2.9,6.2,5.9,15.3,4.7
						C190.4,452.3,188.6,447.1,185.8,443.1z"/>
					<path class="st0" d="M173.6,451.4c-4.3-0.9-8.5-4.9-11-8.5c-1.6-2.4-5.8-5.6-8.4-7.6c0.2,2.8,1,5.5,3.5,6.9
						c2.3,1.3,6,5.3,7,6.7c2,2.9,6.2,5.9,15.3,4.7c5.6-0.8,7.6-2.7,7.9-4.9C184.8,450.7,177.3,452.2,173.6,451.4z"/>
				</g>
				<g>
					<path class="st23" d="M140.3,442.8c-1.4-2-2.9-3.4-4.7-5.8c-0.9-1.1-2-3.1-2.8-4.3c-2.4-3.9-4.8-8.5-4.8-8.5s-5.5,0.2-8.7,0
						c-3.2-0.2-9.1-1.7-9.1-1.7s-1.6,8.9-1.5,11.8c0.1,3,0.8,5.9,3.5,7.5c2.3,1.3,6,5.3,7,6.7c2,2.9,6.2,5.9,15.3,4.7
						C144.8,452,143.1,446.8,140.3,442.8z"/>
					<path class="st0" d="M128,451c-4.2-1-8.5-4.9-10.9-8.5c-1.6-2.4-5.7-5.7-8.4-7.6c0.2,2.8,1,5.5,3.5,6.9c2.3,1.3,6,5.3,7,6.7
						c2,2.9,6.2,5.9,15.3,4.7c5.6-0.7,7.7-2.6,7.9-4.8C139.2,450.4,131.7,451.8,128,451z"/>
				</g>
			</g>
			<g>
				<path class="st24" d="M186.5,318.3c-0.2-29.4-0.4-36.5-0.4-36.5s-22.7,1-37.9,0.1c-14.3-0.9-36.7-2.7-36.7-2.7
					s-2.4,22.2-0.8,33.2c1.5,11,3.3,39.5,3.3,39.5s-5.2,14.5-5.6,24.9c-0.4,10.4-0.1,47.4-0.1,47.4s4.8,3.3,11,3.7
					c6.6,0.4,11.7-1.2,11.7-1.2s9.7-57.3,11.5-64.4c1.8-7.1,4.9-34.6,5.7-39.1c0.8-4.5,2.5-10.1,2.5-10.1l4.6,40.3
					c0,0-4.5,14.7-4.4,25.1c0.1,10.4,2.3,47.3,2.3,47.3s5,3,11.2,3.1c6.6,0.1,11.6-1.7,11.6-1.7s6.9-57.7,8.3-64.9
					C185.7,355.2,186.6,336.7,186.5,318.3z"/>
				<path class="st25" d="M186.4,299.5c-0.1-13.8-0.3-17.6-0.3-17.6s-22.7,1-37.9,0.1c-14.3-0.9-36.7-2.7-36.7-2.7
					s-0.8,7.4-1.2,15.7C125.4,299.9,160.7,309.3,186.4,299.5z"/>
				<path class="st26" d="M109.2,420.7c0,0,7.6,6.5,21.6,2.7"/>
				<path class="st26" d="M154,422.5c0,0,8.1,5.8,21.8,0.8"/>
				<path class="st26" d="M150.8,313.1c0,0,5.6-11.3,6.8-15.3c1.1-3.9,2-12.1,2-12.1"/>
			</g>
		</g>
		<g>
			<path class="st27" d="M186.3,219.1c0-9.2,2.5-26-0.7-32.9c-4.5-10-25.7-16.7-25.7-16.7s-21.3-5.6-40.2,1.4
				c-7.7,2.9-14.6,16.2-15.8,38.5c-1.5,28,3.8,67,4.2,79c0,0,18.4,7.1,45.4,7.1c27.7,0,35.7-2.5,35.7-2.5S186.3,228.4,186.3,219.1z"
				/>
			<g>
				<path class="st12" d="M167.5,167.6l-1.9,9.5c0,0,0,11.1-9.5,7.7c-9.5-3.4-12.5-17.4-12.5-17.4l9.1-13.4L167.5,167.6z"/>
				<g>
					<path class="st28" d="M179.7,134.3c0,0,6.4,3.5,4.1,12.7c-2.3,9.2-7,10.7-9.6,7.7c-2.6-3-9.5-16.7-9.5-16.7l6.5-9.5
						L179.7,134.3z"/>
					<path class="st29" d="M143,135c0,0-4.6,2.5-4.8,8c-0.3,5.5,3.7,7.7,4.3,10.6c0.6,2.9,2.7,8,6.6,8.3c3.9,0.4-1.1-26.6-1.1-26.6
						L143,135z"/>
					<path class="st12" d="M179.4,143.3c1.7,11.4-1.1,24.5-11.3,28c-10.2,3.4-19.3-1-21.3-19.7c-2-18.7,7.7-23,14.9-23.1
						C169,128.4,177.6,131.8,179.4,143.3z"/>
					<path class="st12" d="M150.7,149.1c-0.2-3.9-6-7-7.6-2.7c-1.5,4.3,0.3,9.1,4.3,10.5C151.4,158.2,150.9,153,150.7,149.1z"/>
					<g>
						<path class="st13" d="M170.4,151.8c0.3,1.3,0.3,2.6,0.4,3.8c0,0.6,0,1.3,0.1,1.7c0.1,0.5,0.3,1.2,0.4,1.8
							c0.1,0.7,0.2,1.4,0,2.2c-0.1,0.4-0.3,0.9-0.7,1.3c-0.2,0.2-0.4,0.3-0.6,0.5c-0.2,0.1-0.4,0.2-0.5,0.2
							c-1.4,0.5-2.8,0.4-4.1-0.1c1.2-0.5,2.4-0.9,3.3-1.5c0.1-0.1,0.2-0.2,0.3-0.2c0.1,0,0.1-0.1,0.1-0.1c0.1-0.1,0.1-0.2,0.1-0.4
							c0.1-0.4,0-0.9-0.1-1.5c-0.1-0.6-0.2-1.2-0.3-1.9c-0.1-0.9,0.1-1.4,0.2-2.1C169.5,154.2,169.8,153,170.4,151.8z"/>
					</g>
					<path class="st21" d="M166.2,172.3c0,0-3,0.7-6.5-0.3c-3.5-1-7.3-4.2-8.9-6.7"/>
					<path class="st29" d="M156.1,137.4c3.1,2.1,4.7,2.5,9.2,2.6c4.5,0.1,8.3,0.3,10.3,1.7c2,1.4,2.1,10.5,4.8,11.3
						c1.6,0.5,1.8-6.1,3.1-8c1.2-1.8,2.5-4.6,2-6.8c-1.1-5.1-5.6-7.4-5.6-7.4s0.4-5.4-5.1-8.5c-5.6-3.1-11.8-0.4-11.8-0.4
						s-3-3.8-8.1-2.3c-4.1,1.2-8.2,6.2-7.2,9.8C148.6,133.1,153,135.2,156.1,137.4z"/>
					<path class="st29" d="M157.3,132.7c0,0-1.2,5.8-2.6,7.4c-1.4,1.6-3.4,6.2-3.7,8.9c-0.3,2.7-1.6,3.6-3.1,1.6
						c-1.5-2-0.8-4-1.9-5.4c-0.9-1.3-2.9,0.1-4-2.6c-1.6-3.8-3.3-10.5-0.2-14.5c3.1-4,8.1-3.1,8.1-3.1L157.3,132.7z"/>
				</g>
				<g>
					<path class="st14" d="M151.7,152.9c0,0,3.7,2.8,6.7,3.8c3,1.1,9.7,0.9,11.9,1.3c1.2,0.2,2,1.6,3.6,2.5c1.5,0.8,2.9,1.6,3.6,1.7
						c0,0-1.5,4.4-4.2,6.6c-2.7,2.2-8.3,3.6-12.4,2.7c-4-0.9-10.1-6.2-11.5-9.8c0,0,1-2.1,1.4-3.8
						C151.3,156.3,151.7,152.9,151.7,152.9z"/>
					<path class="st14" d="M145.1,144.8c0,0,2,2.4,3.5,5.2c1.5,2.8,3.2,7.2,3.2,7.2l0.7-2.7c0,0-2.2-4.8-3.7-7
						C147.2,145.4,145.1,144.8,145.1,144.8z"/>
					<path class="st14" d="M145.7,156c1.1,2.2,3,5.8,4.6,6.7l0.6-1c0,0-1.9-2.2-4-5C146.6,156.7,146,156.1,145.7,156z"/>
					<path class="st15" d="M165.4,168.7c0,0,3.1-3.2,5.8-4.7"/>
					<path class="st15" d="M152.9,155.6c0,0,3,2.9,8.2,3.2c5.1,0.2,7.9,0,9.6,0.9c1.7,0.9,4,3.2,5.8,3.6"/>
				</g>
			</g>
			<path class="st30" d="M135.6,247.3c-3.4-14.3-14.3-20.2-14.3-20.2s4.5-8.4,7-14.9s4.8-13.7,3.9-22.1c-0.8-8.4-7-15.1-12.6-15.1
				c-5.6,0-14,18.2-15.9,40.5c-0.3,15.6,1,33.5,2.3,48.1c3,2.2,6.5,3.6,10.2,4.7C141,275.9,139,261.6,135.6,247.3z"/>
		</g>
		<g>
			<path class="st31" d="M361,337.5H143.4c-6.6,0-12-5.4-12-12v-124c0-6.6,5.4-12,12-12H361c6.6,0,12,5.4,12,12v124
				C373,332.2,367.6,337.5,361,337.5z"/>
			<g>
				<defs>
					<rect id="SVGID_1_" x="131.4" y="189.5" width="241.6" height="148"/>
				</defs>
				<clipPath id="SVGID_2_">
					<use xlink:href="#SVGID_1_"  style="overflow:visible;"/>
				</clipPath>
				<path class="st32" d="M145.8,253c0,0,2.1-0.7,1.3-2.9c-0.8-2.2-4.1-2.8-4.1-2.8c1.5-0.2,3.9-1.9,2.5-4c-1.7-2.5-4.4-0.6-9.2-1.5
					c-2.4-0.4-4.3-1.6-4.3-1.6l-0.2-2.9c-0.6,0.2-1.2,0.5-1.8,1c-1.3-1.4-2.7-2.7-4-4.1c-3.8-4.1-7.3-7.5-7.3-7.5s4.1-6,7.4-14.2
					c3.5-8.8,5.3-15.2,5.3-21.9c0-6.7-3-14.7-10.8-15.9c-7.9-1.2-17.6,10.9-22.3,22.3c-4.7,11.4-6.8,30.5-6.7,38.5
					c0.1,6.5,4.2,12.4,8.1,16.2c4.5,4.3,9.3,8,13.7,10.4s14.3,8.3,18.8,3.5c0.7-0.8,1.4-1.7,1.9-2.7c4.3,0.8,9.1,0.1,10.5-1
					c1.9-1.7,0.5-3.5,0.5-3.5s1.5-1.5,1.9-2.7C147.5,254.5,145.8,253,145.8,253z"/>
				<g class="st33">
					<path class="st34" d="M303.3,187.5c-1.4-0.2-2,0.7-2,0.7s-1.1-2.1-3.2-2.3c-1.1-0.1-1.9,0.6-1.9,0.6s-0.4-1.4-2.1-1.7
						c-1.6-0.3-3.3,1.3-3.3,1.3s-2.4-1.2-3.6,0.9c-1.6,0-4.2,1.4-5.5,3.1c-1,1.4-0.3,3.7,2.3,3.2c0.6-0.1,1.8-0.5,2.6-0.8
						c0.2,1.9,0.9,2.8,2.4,3.1c2.1,0.4,3.2-2.3,3.2-2.3s0.3,3,2.6,3.1c2.6,0.1,3-2.6,3-2.6s0.6,2.8,2.9,2.8c2.3-0.1,2-3.2,2-3.2
						s0.2,2.5,2.4,2.2c2.2-0.4,2.1-3.1,1.2-4.9C305.5,189.1,304.8,187.7,303.3,187.5z"/>
					<path class="st34" d="M221.7,187c-1.2-2.2-3.6-0.9-3.6-0.9s-1.7-1.6-3.3-1.3c-1.6,0.3-2.1,1.7-2.1,1.7s-0.8-0.7-1.9-0.6
						c-2.1,0.2-3.2,2.3-3.2,2.3s-0.6-0.9-2-0.7c-1.5,0.2-2.1,1.6-3,3.3c-0.9,1.7-1,4.5,1.2,4.9c2.2,0.4,2.4-2.2,2.4-2.2
						s-0.3,3.1,2,3.2c2.3,0.1,2.9-2.8,2.9-2.8s0.4,2.7,3,2.6c2.3-0.1,2.6-3.1,2.6-3.1s1.1,2.7,3.2,2.3c1.5-0.3,2.2-1.2,2.4-3.1
						c0.8,0.3,1.9,0.6,2.6,0.8c2.6,0.5,3.4-1.8,2.3-3.2C225.9,188.4,223.3,187,221.7,187z"/>
					<path class="st34" d="M331.1,186.5c-1-0.8-2.7-0.3-2.7-0.3s-0.6-0.9-1.9-1.4c-1.4-0.5-2.7,0.5-2.7,0.5s-3.1-0.7-4.3,0.5
						c-1.3,1.1-2.6,3.2-2.9,5.4c-0.4,2.8,0.5,5.3,1,6.1c1,1.4,2.1,0.1,2.1,0.1s0.9,1.4,1.7,1.9c0.8,0.5,2.2-0.4,2.2-0.4
						s0.2,1.7,1.9,1.5c1.8-0.1,3-3.5,3-3.5c0.2,1.1,2.8,2.8,4,0.4c0.7-1.5,3.2-5.8,3.2-5.8s2.7-0.6,3.4-2.3
						C339.7,187.5,332.1,187.4,331.1,186.5z"/>
				</g>
				<path class="st32" d="M398.4,252.3c-1.9-4.1-11.7-7.4-18.2-9.1c-9.2-2.3-25.5-2.8-29-1.2c-1.3-3.1-3.7-7.4-6.1-9.2
					c-2.9-2.2-4.5-1.2-4.1,1c0.4,2.4,2.7,5.7,2.7,5.7s-4.7-1.7-5.9-2.5c-1.2-0.7-2.3-0.7-4.7-2.6c-2.6-2-2.5-3.6-4.7-2.6
					c-2.2,1-1,3.5-1,3.5s-1.6-0.5-2.3,0.5c-0.7,1-0.2,3.4-0.2,3.4s-1.2,1-1.1,2c0,1,1.6,4,1.6,4s-1.3,1.1,0.4,3.8
					c3.8,5.8,9.1,5,12.6,6.3c3,1.1,5.5,0.7,7.4,0.3c0,0.6,0.1,1.1,0.2,1.5c1.1,3.9,11.5,7.6,22.2,11.8c8.2,3.2,19.2,4.8,27.2,0.1
					C403.2,264.6,400.3,256.5,398.4,252.3z"/>
			</g>
		</g>
		<g>
			<g>
				<g>
					<path class="st12" d="M290.8,184.1c0,0-4-2.1-4.2,3.7c-0.2,3.9,0.3,5.5,2.5,5.9c2.1,0.4,3.2-2.3,3.2-2.3s0.3,3,2.6,3.1
						c2.6,0.1,3-2.6,3-2.6s0.6,2.8,2.9,2.8c2.3-0.1,2-3.2,2-3.2s0.2,2.5,2.4,2.2c2.2-0.4,2.1-3.1,1.2-4.9c-0.9-1.7-1.6-3.1-3-3.3
						c-1.4-0.2-2,0.8-2,0.8s-1.1-2.1-3.2-2.3c-1.1-0.1-1.9,0.6-1.9,0.6s-0.4-1.4-2.1-1.7C292.5,182.6,290.8,184.1,290.8,184.1z"/>
				</g>
				<path class="st12" d="M288,185.3c-1.2-0.8-4.7,0.8-6.3,3c-1,1.4-0.3,3.7,2.3,3.2c1-0.2,3.5-1.1,3.5-1.1S289.3,186.2,288,185.3z"
					/>
				<path class="st21" d="M286.6,185.3c0,0-0.9,2.7-0.2,5.3"/>
				<path class="st21" d="M290.7,184.5c0,0,0.8,5.1,1.4,6.7"/>
				<path class="st21" d="M296.1,184.7c0,0,1.3,3,1.4,6.5"/>
				<path class="st21" d="M301.3,186.6c0,0,1.2,2.5,1.3,5"/>
			</g>
			<g>
				<g>
					<path class="st12" d="M218.1,184.1c0,0,4-2.1,4.2,3.7c0.2,3.9-0.3,5.5-2.5,5.9c-2.1,0.4-3.2-2.3-3.2-2.3s-0.3,3-2.6,3.1
						c-2.6,0.1-3-2.6-3-2.6s-0.6,2.8-2.9,2.8c-2.3-0.1-2-3.2-2-3.2s-0.2,2.5-2.4,2.2c-2.2-0.4-2.1-3.1-1.2-4.9
						c0.9-1.7,1.6-3.1,3-3.3c1.4-0.2,2,0.8,2,0.8s1.1-2.1,3.2-2.3c1.1-0.1,1.9,0.6,1.9,0.6s0.4-1.4,2.1-1.7
						C216.4,182.6,218.1,184.1,218.1,184.1z"/>
				</g>
				<path class="st12" d="M220.9,185.3c1.2-0.8,4.7,0.8,6.3,3c1,1.4,0.3,3.7-2.3,3.2c-1-0.2-3.5-1.1-3.5-1.1
					S219.5,186.2,220.9,185.3z"/>
				<path class="st21" d="M222.3,185.3c0,0,0.9,2.7,0.2,5.3"/>
				<path class="st21" d="M218.2,184.5c0,0-0.8,5.1-1.4,6.7"/>
				<path class="st21" d="M212.8,184.7c0,0-1.3,3-1.4,6.5"/>
				<path class="st21" d="M207.5,186.6c0,0-1.2,2.5-1.3,5"/>
			</g>
		</g>
		<g>
			<path class="st12" d="M334.3,186.9c-1.5-0.5-3,0-3,0s0.1-1.2-0.9-2.1c-1-0.8-2.8-0.3-2.8-0.3s-0.6-0.9-2-1.4
				c-1.4-0.5-3.9,1.3-3.9,1.3s-1.8-0.4-3.3,0.2c-1.6,0.6-2.8,2-3,3.6c-0.2,1.6,0.2,5.1,1.4,5.9c1.2,0.8,1.6-0.6,1.6-0.6
				s1.1,3.4,2,3.9c0.8,0.5,2.3-0.4,2.3-0.4s0.2,1.6,2,1.5c1.8-0.1,3-3.5,3-3.5c0.2,1.1,2.3,2.5,3.5,0.1c0.7-1.5,3.9-5.5,3.9-5.5
				l1.9-0.1C336.9,189.6,335.2,187.2,334.3,186.9z"/>
			<path class="st21" d="M330.5,187.7c0,0-1.2,1.8-2,3.6c-0.4,0.9-0.9,2.9-1,3.8"/>
			<path class="st21" d="M326.8,184.9c0,0-2.7,1-3.9,4.5c-0.4,1.1-0.4,6.5-0.4,7.6"/>
			<path class="st21" d="M321.1,184.9c0,0-1.8,1-2.6,2.4c-0.8,1.4-0.3,4.4,0,6.1"/>
		</g>
		<g>
			<path class="st27" d="M134.8,242.9c-1.7-2.9-6-6.7-9.4-10.3c-3.8-4.1-7.3-7.5-7.3-7.5s4.1-6,7.4-14.2c3.5-8.8,5.3-15.2,5.3-21.9
				s-3-14.7-10.8-15.9c-7.9-1.2-17.6,10.9-22.3,22.3c-4.7,11.4-6.8,30.5-6.7,38.5c0.1,6.5,4.2,12.4,8.1,16.2
				c4.5,4.3,9.3,8,13.7,10.4c4.5,2.4,13.3,5.2,19,1.9C136.5,259.7,138.3,249.1,134.8,242.9z"/>
			<g>
				<path class="st12" d="M146.6,248.4c-0.8-2.2-4.1-2.8-4.1-2.8c1.5-0.2,3.9-1.9,2.5-4c-1.7-2.5-4.4-0.6-9.2-1.5
					c-2.4-0.4-4.3-1.6-4.3-1.6l-0.2-2.9c-1.6,0.5-3.8,2.3-4.3,4.7c-0.5,1.9-0.7,5.2-0.8,7.8c-0.1,2.5-1.8,8.2,2.6,11.4
					c4.4,3.2,13.5,2.5,15.3,0.8c1.9-1.7,0.5-3.5,0.5-3.5s1.5-1.5,1.9-2.7c0.4-1.2-1.3-2.7-1.3-2.7S147.4,250.7,146.6,248.4z"/>
				<path class="st21" d="M130.6,244.2c0,0,5.1,2.3,11.8,1.4"/>
				<path class="st21" d="M128.8,249.6c0,0,10.2,3.4,16.4,1.9"/>
				<path class="st21" d="M128.4,255.4c0,0,10,4.1,16.3,1.4"/>
			</g>
		</g>
		<g>
			<path class="st9" d="M401.3,211.1c-1.4-12.1-7.1-16.8-12.8-16.3c-5.7,0.5-12.7,8.1-12.3,20.9c0.3,11.9,5.6,31.6,5.7,37.7
				c0.2,6,4.4,12.7,9.3,12.4c4.8-0.2,8.2-1.7,9.8-9.8C402.6,247.7,402.5,221.4,401.3,211.1z"/>
			<path class="st9" d="M398.1,249.5c-1.9-4.1-11.7-7.4-18.2-9.1c-9.6-2.4-27.2-2.8-29.5-0.9c-2.3,1.9-6,11.1-4.9,15
				c1.1,3.9,11.5,7.6,22.2,11.8c8.2,3.2,19.2,4.8,27.2,0.1C402.9,261.8,400,253.7,398.1,249.5z"/>
			<g>
				<g>
					<path class="st12" d="M332.7,231.8c2.5,1.9,3.6,1.8,4.7,2.6c1.2,0.7,5.1,3.1,5.9,2.5c0.8-0.7-2.6-2.7-3-5.1
						c-0.4-2.2,1-3,4.2-1.3c2.9,1.6,5.2,5.9,6.4,9.1c1.3,3.1,2.5,3.6,1.3,6.8c-1.2,3.2-3.8,6.3-5.7,6.5c-1.9,0.2-4.2,0.8-8.7-0.1
						c-2.6-0.5-5.6-1.2-7.5-2.1c-1.6-0.7-3.4-1.1-4-3.4c-0.6-2.3-0.6-4.6-0.6-4.6s-2.4-3-2.5-4c0-1,1.1-2,1.1-2s-0.5-2.4,0.2-3.4
						c0.7-1,2.3-0.5,2.3-0.5s-1.1-2.5,1-3.5C330.2,228.2,330.1,229.8,332.7,231.8z"/>
				</g>
				<path class="st21" d="M339.9,240.5c0,0-8.1-1.3-12.4-7.6"/>
				<path class="st21" d="M338.3,244.7c0,0-8.7-1.8-13.4-7.9"/>
				<path class="st21" d="M335.8,248.1c0,0-3.2-0.4-4.4-0.8c-1.3-0.4-3.7-2.2-5.3-4.2"/>
			</g>
		</g>
	</g>
</g>
<g id="TEXT">
	<g>
		<g>
			<path d="M174.8,254.4l-13.4-13.6l0.7,0.2l0,12.9h-2.3V236h0.1l13.2,13.7l-0.5-0.1l0-13h2.3L174.8,254.4L174.8,254.4z"/>
			<path d="M178.8,245.2c0-1.2,0.2-2.3,0.7-3.4s1.1-2,1.9-2.8c0.8-0.8,1.8-1.5,2.8-1.9c1.1-0.5,2.2-0.7,3.4-0.7
				c1.2,0,2.3,0.2,3.4,0.7c1.1,0.5,2,1.1,2.8,1.9c0.8,0.8,1.5,1.8,1.9,2.8c0.5,1.1,0.7,2.2,0.7,3.4c0,1.2-0.2,2.4-0.7,3.4
				c-0.5,1.1-1.1,2-1.9,2.8c-0.8,0.8-1.8,1.4-2.8,1.9c-1.1,0.5-2.2,0.7-3.4,0.7c-1.2,0-2.4-0.2-3.4-0.7c-1.1-0.4-2-1.1-2.8-1.9
				c-0.8-0.8-1.5-1.7-1.9-2.8S178.8,246.5,178.8,245.2z M181.2,245.2c0,0.9,0.2,1.8,0.5,2.6c0.3,0.8,0.8,1.5,1.4,2.1
				c0.6,0.6,1.3,1.1,2.1,1.4c0.8,0.3,1.6,0.5,2.5,0.5s1.8-0.2,2.5-0.5c0.8-0.3,1.5-0.8,2-1.4c0.6-0.6,1-1.3,1.4-2.1
				c0.3-0.8,0.5-1.7,0.5-2.6c0-0.9-0.2-1.8-0.5-2.6c-0.3-0.8-0.8-1.5-1.4-2.1c-0.6-0.6-1.3-1.1-2.1-1.4c-0.8-0.3-1.6-0.5-2.5-0.5
				c-0.9,0-1.8,0.2-2.6,0.5c-0.8,0.4-1.5,0.8-2.1,1.4c-0.6,0.6-1,1.3-1.4,2.1C181.4,243.5,181.2,244.3,181.2,245.2z"/>
			<path d="M199.2,236.5h11.5v2.2H206v15.1h-2.3v-15.1h-4.6V236.5z"/>
			<path d="M226.6,248.1l-6.4-11.6h2.9l5.2,9.6l-0.7,0l5.1-9.6h2.8l-6.5,11.6v5.8h-2.3V248.1z"/>
			<path d="M238.6,236.5h11.3v2.2h-9v5.3h8v2.3h-8v5.4h9.3v2.2h-11.6V236.5z"/>
			<path d="M252.9,236.5h11.5v2.2h-4.7v15.1h-2.3v-15.1h-4.6V236.5z"/>
			<path d="M172.5,281.4c-0.3,0.2-0.7,0.4-1.2,0.6c-0.5,0.2-1.1,0.4-1.7,0.6c-0.7,0.2-1.4,0.2-2.2,0.2c-1.3,0-2.5-0.3-3.6-0.7
				s-2-1.1-2.8-1.9c-0.8-0.8-1.3-1.7-1.7-2.8c-0.4-1-0.6-2.2-0.6-3.3c0-1.3,0.2-2.5,0.6-3.6c0.4-1.1,1-2,1.8-2.9
				c0.8-0.8,1.7-1.4,2.7-1.9c1-0.4,2.2-0.7,3.4-0.7c1,0,2,0.1,2.8,0.4c0.8,0.3,1.6,0.6,2.2,1l-0.9,2.2c-0.5-0.3-1.1-0.6-1.8-0.9
				s-1.4-0.4-2.3-0.4c-0.8,0-1.6,0.2-2.4,0.5c-0.8,0.3-1.4,0.8-2,1.4c-0.6,0.6-1,1.3-1.4,2.1c-0.3,0.8-0.5,1.7-0.5,2.6
				c0,0.9,0.1,1.8,0.4,2.6c0.3,0.8,0.7,1.5,1.3,2.1c0.6,0.6,1.2,1.1,2,1.4c0.8,0.3,1.7,0.5,2.6,0.5c0.9,0,1.7-0.1,2.4-0.4
				c0.7-0.3,1.3-0.6,1.7-0.9L172.5,281.4z"/>
			<path d="M175.4,274c0-1.2,0.2-2.3,0.7-3.4s1.1-2,1.9-2.8c0.8-0.8,1.8-1.5,2.8-1.9c1.1-0.5,2.2-0.7,3.4-0.7c1.2,0,2.3,0.2,3.4,0.7
				c1.1,0.5,2,1.1,2.8,1.9c0.8,0.8,1.5,1.8,1.9,2.8c0.5,1.1,0.7,2.2,0.7,3.4c0,1.2-0.2,2.4-0.7,3.4c-0.5,1.1-1.1,2-1.9,2.8
				c-0.8,0.8-1.8,1.4-2.8,1.9c-1.1,0.5-2.2,0.7-3.4,0.7c-1.2,0-2.4-0.2-3.4-0.7c-1.1-0.4-2-1.1-2.8-1.9c-0.8-0.8-1.5-1.7-1.9-2.8
				S175.4,275.3,175.4,274z M177.8,274c0,0.9,0.2,1.8,0.5,2.6c0.3,0.8,0.8,1.5,1.4,2.1c0.6,0.6,1.3,1.1,2.1,1.4
				c0.8,0.3,1.6,0.5,2.5,0.5s1.8-0.2,2.5-0.5c0.8-0.3,1.5-0.8,2-1.4c0.6-0.6,1-1.3,1.4-2.1c0.3-0.8,0.5-1.7,0.5-2.6
				c0-0.9-0.2-1.8-0.5-2.6c-0.3-0.8-0.8-1.5-1.4-2.1c-0.6-0.6-1.3-1.1-2.1-1.4c-0.8-0.3-1.6-0.5-2.5-0.5c-0.9,0-1.8,0.2-2.6,0.5
				c-0.8,0.4-1.5,0.8-2.1,1.4c-0.6,0.6-1,1.3-1.4,2.1C177.9,272.3,177.8,273.1,177.8,274z"/>
			<path d="M197,282.7v-17.9h0l9.1,12.9l-1-0.2l9.1-12.7h0v17.9h-2.3V270l0.2,1.2l-6.5,9.3h0l-6.6-9.3l0.4-1.1v12.5H197z"/>
			<path d="M219.3,265.3h2.3v17.4h-2.3V265.3z"/>
			<path d="M241.6,283.2l-13.4-13.6l0.7,0.2l0,12.9h-2.3v-17.9h0.1l13.2,13.7l-0.5-0.1l0-13h2.3L241.6,283.2L241.6,283.2z"/>
			<path d="M260.3,281.2c-0.2,0.2-0.6,0.4-1,0.6c-0.4,0.2-0.9,0.4-1.4,0.5c-0.5,0.2-1.1,0.3-1.6,0.4c-0.5,0.1-1.1,0.1-1.6,0.1
				c-1.4,0-2.6-0.2-3.8-0.6c-1.1-0.4-2.1-1-2.9-1.8s-1.4-1.7-1.8-2.7c-0.4-1-0.6-2.2-0.6-3.4c0-1.5,0.2-2.8,0.7-3.9
				c0.5-1.1,1.1-2.1,1.9-2.9s1.8-1.4,2.8-1.8c1.1-0.4,2.2-0.6,3.4-0.6c1,0,2,0.1,2.8,0.3c0.9,0.2,1.6,0.5,2.3,0.9l-0.8,2.1
				c-0.3-0.2-0.7-0.3-1.2-0.5c-0.5-0.2-1-0.3-1.5-0.4c-0.5-0.1-1-0.2-1.4-0.2c-1,0-2,0.2-2.8,0.5c-0.8,0.3-1.5,0.8-2.1,1.3
				c-0.6,0.6-1.1,1.3-1.4,2.1c-0.3,0.8-0.5,1.7-0.5,2.8c0,0.9,0.2,1.8,0.5,2.6c0.3,0.8,0.8,1.5,1.4,2c0.6,0.6,1.3,1,2.1,1.3
				c0.8,0.3,1.7,0.5,2.7,0.5c0.6,0,1.2-0.1,1.7-0.2c0.6-0.1,1.1-0.3,1.5-0.5v-3.4h-3.4v-2.3h5.8V281.2z"/>
			<path d="M281.3,268.4c-0.6-0.3-1.2-0.6-1.9-0.8s-1.4-0.3-2.1-0.3c-0.9,0-1.7,0.2-2.2,0.6c-0.6,0.4-0.8,1-0.8,1.7
				c0,0.5,0.2,1,0.5,1.4s0.8,0.7,1.4,1c0.6,0.3,1.2,0.5,1.8,0.8c0.5,0.2,1.1,0.4,1.6,0.7c0.5,0.3,1,0.6,1.4,1c0.4,0.4,0.8,0.9,1,1.4
				c0.2,0.6,0.4,1.2,0.4,2.1c0,0.9-0.2,1.8-0.7,2.5s-1.1,1.3-2,1.8c-0.8,0.4-1.9,0.6-3,0.6c-0.8,0-1.5-0.1-2.2-0.3
				c-0.7-0.2-1.3-0.4-1.9-0.7s-1.1-0.6-1.6-0.9l1-1.8c0.4,0.3,0.8,0.5,1.3,0.8s1,0.4,1.6,0.6s1.1,0.2,1.6,0.2c0.6,0,1.1-0.1,1.6-0.3
				c0.5-0.2,1-0.5,1.3-0.9c0.4-0.4,0.5-1,0.5-1.7c0-0.6-0.2-1.1-0.5-1.5s-0.7-0.7-1.2-1c-0.5-0.3-1.1-0.5-1.6-0.8
				c-0.6-0.2-1.1-0.4-1.7-0.7c-0.6-0.3-1.1-0.6-1.5-0.9s-0.9-0.8-1.2-1.3c-0.3-0.5-0.4-1.2-0.4-1.9c0-0.9,0.2-1.7,0.7-2.4
				c0.4-0.7,1-1.2,1.8-1.6c0.8-0.4,1.6-0.6,2.6-0.6c1.1,0,2.1,0.1,3,0.4c0.9,0.3,1.6,0.6,2.3,1L281.3,268.4z"/>
			<path d="M285.2,274c0-1.2,0.2-2.3,0.7-3.4s1.1-2,1.9-2.8c0.8-0.8,1.8-1.5,2.8-1.9c1.1-0.5,2.2-0.7,3.4-0.7c1.2,0,2.3,0.2,3.4,0.7
				c1.1,0.5,2,1.1,2.8,1.9c0.8,0.8,1.5,1.8,1.9,2.8c0.5,1.1,0.7,2.2,0.7,3.4c0,1.2-0.2,2.4-0.7,3.4c-0.5,1.1-1.1,2-1.9,2.8
				c-0.8,0.8-1.8,1.4-2.8,1.9c-1.1,0.5-2.2,0.7-3.4,0.7c-1.2,0-2.4-0.2-3.4-0.7c-1.1-0.4-2-1.1-2.8-1.9c-0.8-0.8-1.5-1.7-1.9-2.8
				S285.2,275.3,285.2,274z M287.6,274c0,0.9,0.2,1.8,0.5,2.6c0.3,0.8,0.8,1.5,1.4,2.1c0.6,0.6,1.3,1.1,2.1,1.4
				c0.8,0.3,1.6,0.5,2.5,0.5s1.8-0.2,2.5-0.5c0.8-0.3,1.5-0.8,2-1.4c0.6-0.6,1-1.3,1.4-2.1c0.3-0.8,0.5-1.7,0.5-2.6
				c0-0.9-0.2-1.8-0.5-2.6c-0.3-0.8-0.8-1.5-1.4-2.1c-0.6-0.6-1.3-1.1-2.1-1.4c-0.8-0.3-1.6-0.5-2.5-0.5c-0.9,0-1.8,0.2-2.6,0.5
				c-0.8,0.4-1.5,0.8-2.1,1.4c-0.6,0.6-1,1.3-1.4,2.1C287.7,272.3,287.6,273.1,287.6,274z"/>
			<path d="M305.7,274c0-1.2,0.2-2.3,0.7-3.4s1.1-2,1.9-2.8c0.8-0.8,1.8-1.5,2.8-1.9c1.1-0.5,2.2-0.7,3.4-0.7c1.2,0,2.3,0.2,3.4,0.7
				c1.1,0.5,2,1.1,2.8,1.9c0.8,0.8,1.5,1.8,1.9,2.8c0.5,1.1,0.7,2.2,0.7,3.4c0,1.2-0.2,2.4-0.7,3.4c-0.5,1.1-1.1,2-1.9,2.8
				c-0.8,0.8-1.8,1.4-2.8,1.9c-1.1,0.5-2.2,0.7-3.4,0.7c-1.2,0-2.4-0.2-3.4-0.7c-1.1-0.4-2-1.1-2.8-1.9c-0.8-0.8-1.5-1.7-1.9-2.8
				S305.7,275.3,305.7,274z M308.1,274c0,0.9,0.2,1.8,0.5,2.6c0.3,0.8,0.8,1.5,1.4,2.1c0.6,0.6,1.3,1.1,2.1,1.4
				c0.8,0.3,1.6,0.5,2.5,0.5s1.8-0.2,2.5-0.5c0.8-0.3,1.5-0.8,2-1.4c0.6-0.6,1-1.3,1.4-2.1c0.3-0.8,0.5-1.7,0.5-2.6
				c0-0.9-0.2-1.8-0.5-2.6c-0.3-0.8-0.8-1.5-1.4-2.1c-0.6-0.6-1.3-1.1-2.1-1.4c-0.8-0.3-1.6-0.5-2.5-0.5c-0.9,0-1.8,0.2-2.6,0.5
				c-0.8,0.4-1.5,0.8-2.1,1.4c-0.6,0.6-1,1.3-1.4,2.1C308.3,272.3,308.1,273.1,308.1,274z"/>
			<path d="M342.4,283.2L329,269.6l0.7,0.2l0,12.9h-2.3v-17.9h0.1l13.2,13.7l-0.5-0.1l0-13h2.3L342.4,283.2L342.4,283.2z"/>
			<path d="M346.2,280.5c0.3-0.3,0.6-0.4,0.9-0.4c0.3,0,0.6,0.1,0.8,0.4c0.3,0.3,0.4,0.6,0.4,0.9c0,0.4-0.1,0.7-0.4,0.9
				c-0.3,0.2-0.5,0.3-0.8,0.3c-0.3,0-0.6-0.1-0.9-0.3c-0.3-0.2-0.4-0.5-0.4-0.9C345.8,281,345.9,280.7,346.2,280.5z"/>
			<path d="M350.2,280.5c0.3-0.3,0.6-0.4,0.9-0.4c0.3,0,0.6,0.1,0.8,0.4c0.3,0.3,0.4,0.6,0.4,0.9c0,0.4-0.1,0.7-0.4,0.9
				c-0.3,0.2-0.5,0.3-0.8,0.3c-0.3,0-0.6-0.1-0.9-0.3c-0.3-0.2-0.4-0.5-0.4-0.9C349.8,281,350,280.7,350.2,280.5z"/>
			<path d="M354.3,280.5c0.3-0.3,0.6-0.4,0.9-0.4c0.3,0,0.6,0.1,0.8,0.4c0.3,0.3,0.4,0.6,0.4,0.9c0,0.4-0.1,0.7-0.4,0.9
				c-0.3,0.2-0.5,0.3-0.8,0.3c-0.3,0-0.6-0.1-0.9-0.3c-0.3-0.2-0.4-0.5-0.4-0.9C353.9,281,354,280.7,354.3,280.5z"/>
		</g>
	</g>
</g>
</svg>
