<svg xmlns="http://www.w3.org/2000/svg" width="1812.758" height="1527.707" viewBox="0 0 1812.758 1527.707">
  <g id="Error_404_2_" data-name="Error 404 (2)" transform="translate(-687.19 -167.493)">
    <g id="Layer_1">
      <path id="Path_491" data-name="Path 491" d="M1217,347.4s-4.4-2.6-12.2-6.5c-45.2-22.4-202.5-85.6-239.4,100.7-43.1,218.2-64.7,153.8-186.9,287.7s-129.4,515.8,25.2,617.5c154.5,101.7,260.5,69.4,260.5,69.4l1390.7-19.8s106-374.5-7.2-580.3-231.8-151.3-289.3-191,16.2-228.2-62.9-327.4S1908.8,139.1,1792,181.2,1587.2,335,1445.2,352.3,1217,347.4,1217,347.4Z" fill="#b9d2ea"/>
      <path id="Path_492" data-name="Path 492" d="M2460.2,1394.9s-36.8,155.6-194.6,168.2-292.6-13-392.2,24.3-127.1,107.8-298.7,107.8-262-165.4-347.7-165.4-179.2,12.3-211.4-21.4S948.2,1395,948.2,1395l1518.1-7.6Z" fill="#062959"/>
    </g>
    <ellipse id="Ellipse_18" data-name="Ellipse 18" cx="68.3" cy="25.4" rx="68.3" ry="25.4" transform="translate(791.1 1152.4)" fill="#c1ceee"/>
    <path id="Path_495" data-name="Path 495" d="M885.4,1037.9s-59.9-2.4-78.6,6.1-12.9,10.6-12.9,10.6,23.5,15.3,51.1,15,56.9-7.8,64.7-11.9l7.8-4.1s-10.9-10.2-21.4-12.9Z" fill="#a0b1d1" opacity="0.42"/>
    <path id="Path_496" data-name="Path 496" d="M793,1058.5l15.7,113h91.6l15.3-117.1s-38.5,15.5-70.8,14.3-51.7-15.2-51.7-15.2v5Z" fill="#edf1f5"/>
    <path id="Path_497" data-name="Path 497" d="M888.5,1060.7a79.087,79.087,0,0,1,8.9-31.4c8.4-15.6,17.6-36.3,18.1-61.8s-6.6-40.1-6.6-40.1.5,18.1-6.9,30.1-13.5,40.6-13.5,40.6-6.4-32.4,0-54.6,17.1-48.3,17.1-72.8.3-30.4.3-30.4-25.8,51.6-34,76.3c-8.2,24.8-13.3,52.3-13.3,52.3s-3.3-58.7-9.2-97.5-30.1-93.2-30.1-93.2.8,41.4,6.1,72.8,7.1,72,7.1,87.3,3.3,41.6,4.3,43.1-11.7-20.2-10-47.7c1.8-27.6-31.4-107.7-31.4-107.7s-4.3,54.1,6.9,105.2,12.5,80.4,12.5,80.4a137.271,137.271,0,0,1-12.5-34.5c-3.8-18.6-1.3-26.6-1.3-26.6s-14,31.9-2.3,66.4,15.1,46.7,15.1,46.7,23,8.2,38.8,5.8,35.6-6.5,35.6-6.5Z" fill="#062959"/>
    <g id="Group_330" data-name="Group 330">
      <g id="Group_329" data-name="Group 329">
        <g id="Group_328" data-name="Group 328">
          <path id="Path_498" data-name="Path 498" d="M821.5,1062.8a26.635,26.635,0,0,1-.1-4.1,95.835,95.835,0,0,0-1-11,74.179,74.179,0,0,0-4.5-15.8,70.1,70.1,0,0,0-4.3-8.7c-1.7-2.9-3.4-6-5.1-9.2a104.318,104.318,0,0,1-7.9-18.7,67.621,67.621,0,0,1-2.9-16.4,49.806,49.806,0,0,1,.7-11.2,22.76,22.76,0,0,1,.7-3c.2-.7.3-1,.4-1s-.2,1.5-.5,4.1a54.73,54.73,0,0,0-.2,11.1,71.825,71.825,0,0,0,3.1,16.1,110.429,110.429,0,0,0,7.9,18.5c1.7,3.1,3.5,6.2,5.1,9.2a71.24,71.24,0,0,1,4.3,8.8,73.268,73.268,0,0,1,4.3,16.1,59.611,59.611,0,0,1,.6,11.2,21.122,21.122,0,0,1-.2,3A5.456,5.456,0,0,0,821.5,1062.8Z" fill="#fff"/>
        </g>
      </g>
    </g>
    <g id="Group_333" data-name="Group 333">
      <g id="Group_332" data-name="Group 332">
        <g id="Group_331" data-name="Group 331">
          <path id="Path_499" data-name="Path 499" d="M850.2,1051.8a3.225,3.225,0,0,1-.2-.6c-.1-.4-.3-1-.5-1.8-.5-1.6-1.1-4-1.8-7.1a219.561,219.561,0,0,1-4.2-26.7,399.718,399.718,0,0,1-1.5-40.1c0-15.1.6-31.7.7-49.1,0-17.4-.7-34-2.8-48.9a193.611,193.611,0,0,0-9.4-38.8c-1.8-5.4-3.4-10.3-4.5-14.8a65.066,65.066,0,0,1-1.9-11.5c-.1-1.6-.1-3-.1-4.3.1-1.2.1-2.3.2-3.1s.2-1.5.3-1.9a2.8,2.8,0,0,0,.1-.6c.2,0-.6,3.5.1,9.9a78.2,78.2,0,0,0,2.1,11.4c1.1,4.4,2.8,9.2,4.7,14.6a193.553,193.553,0,0,1,9.7,38.9c2.2,15,2.9,31.6,2.9,49.1,0,17.4-.7,34-.8,49.1s.2,28.7,1.2,40a260.369,260.369,0,0,0,3.7,26.7c.6,3.1,1.2,5.5,1.5,7.2.2.8.3,1.4.4,1.9A1.75,1.75,0,0,1,850.2,1051.8Z" fill="#fff"/>
        </g>
      </g>
    </g>
    <g id="Group_336" data-name="Group 336">
      <g id="Group_335" data-name="Group 335">
        <g id="Group_334" data-name="Group 334">
          <path id="Path_500" data-name="Path 500" d="M867.2,1055.9a16.733,16.733,0,0,1,.2-2.1c.1-.7.2-1.5.3-2.5s.2-2.1.4-3.4c.3-2.6.5-5.8.7-9.4.1-3.7.2-7.9.2-12.6,0-9.3-.7-20.4-.6-32.7a187.744,187.744,0,0,1,1.1-19.4c.7-6.7,1.8-13.6,3.1-20.6,2.7-14,6.4-27.1,9.9-38.9,1.8-5.9,3.5-11.5,5.1-16.7s3.3-10.1,5.1-14.4,3.7-8.1,5.2-11.5a73.373,73.373,0,0,0,3.3-8.8,46.247,46.247,0,0,0,1.2-5.8,11.474,11.474,0,0,1,.3-2.1v2.1a28.707,28.707,0,0,1-1,5.9,64.784,64.784,0,0,1-3.1,9c-1.4,3.4-3.2,7.2-5,11.5-1.7,4.3-3.3,9.1-4.9,14.4-1.6,5.2-3.3,10.8-5,16.8-3.4,11.8-7,24.9-9.7,38.8-1.4,7-2.4,13.8-3.1,20.5-.7,6.6-1.1,13.1-1.2,19.2-.1,12.3.4,23.4.3,32.7,0,4.7-.2,8.9-.4,12.6-.3,3.7-.6,6.9-.9,9.5-.2,1.3-.4,2.4-.5,3.4-.2,1-.3,1.8-.5,2.5C867.4,1055.2,867.2,1055.9,867.2,1055.9Z" fill="#fff"/>
        </g>
      </g>
    </g>
    <g id="Group_339" data-name="Group 339">
      <g id="Group_338" data-name="Group 338">
        <g id="Group_337" data-name="Group 337">
          <path id="Path_501" data-name="Path 501" d="M880,1050.9s-.1-.4-.3-1.1c-.1-.7-.3-1.8-.5-3.2a53.54,53.54,0,0,1,.1-12,82.859,82.859,0,0,1,3.9-17.4,157.147,157.147,0,0,1,8.4-20.1c3.3-7,6.6-13.5,9.4-19.6a159.419,159.419,0,0,0,6.4-16.4,45.607,45.607,0,0,0,2.2-11.6c.2-2.8,0-4.4.1-4.4,0,0,.1.4.2,1.1a23.82,23.82,0,0,1,.2,3.3,48.9,48.9,0,0,1-1.8,11.9,131.617,131.617,0,0,1-6.2,16.7c-2.7,6.1-6,12.7-9.3,19.6a178.257,178.257,0,0,0-8.4,19.9,88.994,88.994,0,0,0-4.1,17.1,56.677,56.677,0,0,0-.5,11.8c0,1.4.2,2.5.2,3.2Q880,1050.9,880,1050.9Z" fill="#fff"/>
        </g>
      </g>
    </g>
    <g id="Group_342" data-name="Group 342">
      <g id="Group_341" data-name="Group 341">
        <g id="Group_340" data-name="Group 340">
          <path id="Path_502" data-name="Path 502" d="M829.2,1038.3s-.2-.7-.5-2c-.2-1.3-.6-3.2-1.1-5.7-.9-5-2.2-12.2-3.7-21.1-3.1-17.8-7.3-42.5-11.8-69.7S803.5,887.9,801,870c-1.3-9-2.3-16.2-2.9-21.2-.3-2.5-.5-4.5-.7-5.8a7.573,7.573,0,0,1-.1-2,6.881,6.881,0,0,1,.4,2c.2,1.3.5,3.3.9,5.8.8,5,1.9,12.2,3.3,21.2,2.8,17.9,7,42.5,11.5,69.7s8.5,51.9,11.4,69.8c1.4,8.9,2.5,16.2,3.3,21.2.4,2.5.6,4.4.8,5.8A7.583,7.583,0,0,1,829.2,1038.3Z" fill="#fff"/>
        </g>
      </g>
    </g>
    <ellipse id="Ellipse_19" data-name="Ellipse 19" cx="68.3" cy="25.4" rx="68.3" ry="25.4" transform="translate(2244.5 1179.4)" fill="#c1ceee"/>
    <path id="Path_503" data-name="Path 503" d="M2338.8,1064.9s-59.9-2.4-78.6,6.1-12.9,10.6-12.9,10.6,23.5,15.3,51.1,15,56.9-7.8,64.7-11.9l7.8-4.1s-10.9-10.2-21.4-12.9Z" fill="#a0b1d1" opacity="0.42"/>
    <path id="Path_504" data-name="Path 504" d="M2246.4,1085.5l15.7,113h91.6l15.3-117.1s-38.5,15.5-70.8,14.3-51.7-15.2-51.7-15.2v5Z" fill="#edf1f5"/>
    <path id="Path_505" data-name="Path 505" d="M2341.9,1087.7a79.088,79.088,0,0,1,8.9-31.4c8.4-15.6,17.6-36.3,18.1-61.8s-6.6-40.1-6.6-40.1.5,18.1-6.9,30.1-13.5,40.6-13.5,40.6-6.4-32.4,0-54.6,17.1-48.3,17.1-72.8.3-30.4.3-30.4-25.8,51.6-34,76.3c-8.2,24.8-13.3,52.3-13.3,52.3s-3.3-58.7-9.2-97.5-30.1-93.2-30.1-93.2.8,41.4,6.1,72.8c5.4,31.4,7.1,72,7.1,87.3s3.3,41.6,4.3,43.1-11.7-20.2-10-47.7c1.8-27.6-31.4-107.7-31.4-107.7s-4.3,54.1,6.9,105.2,12.5,80.4,12.5,80.4a137.273,137.273,0,0,1-12.5-34.5c-3.8-18.6-1.3-26.6-1.3-26.6s-14,31.9-2.3,66.4,15.1,46.7,15.1,46.7,23,8.2,38.8,5.8,35.6-6.5,35.6-6.5Z" fill="#062959"/>
    <g id="Group_345" data-name="Group 345">
      <g id="Group_344" data-name="Group 344">
        <g id="Group_343" data-name="Group 343">
          <path id="Path_506" data-name="Path 506" d="M2274.9,1089.8a26.6,26.6,0,0,1-.1-4.1,95.877,95.877,0,0,0-1-11,74.19,74.19,0,0,0-4.5-15.8,70.092,70.092,0,0,0-4.3-8.7c-1.7-2.9-3.4-6-5.1-9.2a104.306,104.306,0,0,1-7.9-18.7,67.615,67.615,0,0,1-2.9-16.4,49.81,49.81,0,0,1,.7-11.2,22.762,22.762,0,0,1,.7-3c.2-.7.3-1,.4-1s-.2,1.5-.5,4.1a54.713,54.713,0,0,0-.2,11.1,71.826,71.826,0,0,0,3.1,16.1,110.455,110.455,0,0,0,7.9,18.5c1.7,3.1,3.5,6.2,5.1,9.2a71.245,71.245,0,0,1,4.3,8.8,73.262,73.262,0,0,1,4.3,16.1,59.634,59.634,0,0,1,.6,11.2,21.151,21.151,0,0,1-.2,3A5.459,5.459,0,0,0,2274.9,1089.8Z" fill="#fff"/>
        </g>
      </g>
    </g>
    <g id="Group_348" data-name="Group 348">
      <g id="Group_347" data-name="Group 347">
        <g id="Group_346" data-name="Group 346">
          <path id="Path_507" data-name="Path 507" d="M2303.6,1078.8a3.211,3.211,0,0,1-.2-.6c-.1-.4-.3-1-.5-1.8-.5-1.6-1.1-4-1.8-7.1a219.552,219.552,0,0,1-4.2-26.7,399.645,399.645,0,0,1-1.5-40.1c0-15.1.6-31.7.7-49.1,0-17.4-.7-34-2.8-48.9a193.628,193.628,0,0,0-9.4-38.8c-1.8-5.4-3.4-10.3-4.5-14.8a65.047,65.047,0,0,1-1.9-11.5c-.1-1.6-.1-3-.1-4.3.1-1.2.1-2.3.2-3.1s.2-1.5.3-1.9a2.8,2.8,0,0,0,.1-.6,57.494,57.494,0,0,0,.1,9.9,78.192,78.192,0,0,0,2.1,11.4c1.1,4.4,2.8,9.2,4.7,14.6a193.549,193.549,0,0,1,9.7,38.9c2.2,15,2.9,31.6,2.9,49.1,0,17.4-.7,34-.8,49.1s.2,28.7,1.2,40a260.389,260.389,0,0,0,3.7,26.7c.6,3.1,1.2,5.5,1.5,7.2.2.8.3,1.4.4,1.9A1.747,1.747,0,0,1,2303.6,1078.8Z" fill="#fff"/>
        </g>
      </g>
    </g>
    <g id="Group_351" data-name="Group 351">
      <g id="Group_350" data-name="Group 350">
        <g id="Group_349" data-name="Group 349">
          <path id="Path_508" data-name="Path 508" d="M2320.6,1082.9a16.738,16.738,0,0,1,.2-2.1c.1-.7.2-1.5.3-2.5s.2-2.1.4-3.4c.3-2.6.5-5.8.7-9.4.1-3.7.2-7.9.2-12.6,0-9.3-.7-20.4-.6-32.7a187.677,187.677,0,0,1,1.1-19.4c.7-6.7,1.8-13.6,3.1-20.6,2.7-14,6.4-27.1,9.9-38.9,1.8-5.9,3.5-11.5,5.1-16.7s3.3-10.1,5.1-14.4,3.7-8.1,5.2-11.5a73.364,73.364,0,0,0,3.3-8.8,46.244,46.244,0,0,0,1.2-5.8,11.449,11.449,0,0,1,.3-2.1v2.1a28.719,28.719,0,0,1-1,5.9,64.778,64.778,0,0,1-3.1,9c-1.4,3.4-3.2,7.2-5,11.5-1.7,4.3-3.3,9.1-4.9,14.4-1.6,5.2-3.3,10.8-5,16.8-3.4,11.8-7,24.9-9.7,38.8-1.4,7-2.4,13.8-3.1,20.5-.7,6.6-1.1,13.1-1.2,19.2-.1,12.3.4,23.4.3,32.7,0,4.7-.2,8.9-.4,12.6-.3,3.7-.6,6.9-.9,9.5-.2,1.3-.4,2.4-.5,3.4-.2,1-.3,1.8-.5,2.5C2320.8,1082.2,2320.6,1082.9,2320.6,1082.9Z" fill="#fff"/>
        </g>
      </g>
    </g>
    <g id="Group_354" data-name="Group 354">
      <g id="Group_353" data-name="Group 353">
        <g id="Group_352" data-name="Group 352">
          <path id="Path_509" data-name="Path 509" d="M2333.4,1078s-.1-.4-.3-1.1c-.1-.7-.3-1.8-.5-3.2a53.531,53.531,0,0,1,.1-12,82.87,82.87,0,0,1,3.9-17.4,157.185,157.185,0,0,1,8.4-20.1c3.3-7,6.6-13.5,9.4-19.6a159.43,159.43,0,0,0,6.4-16.4,45.6,45.6,0,0,0,2.2-11.6c.2-2.8,0-4.4.1-4.4,0,0,.1.4.2,1.1a23.8,23.8,0,0,1,.2,3.3,48.9,48.9,0,0,1-1.8,11.9,131.606,131.606,0,0,1-6.2,16.7c-2.7,6.1-6,12.7-9.3,19.6a178.21,178.21,0,0,0-8.4,19.9,89,89,0,0,0-4.1,17.1,56.686,56.686,0,0,0-.5,11.8c0,1.4.2,2.5.2,3.2C2333.4,1077.6,2333.4,1077.9,2333.4,1078Z" fill="#fff"/>
        </g>
      </g>
    </g>
    <g id="Group_357" data-name="Group 357">
      <g id="Group_356" data-name="Group 356">
        <g id="Group_355" data-name="Group 355">
          <path id="Path_510" data-name="Path 510" d="M2282.6,1065.4s-.2-.7-.5-2c-.2-1.3-.6-3.2-1.1-5.7-.9-5-2.2-12.2-3.7-21.1-3.1-17.8-7.3-42.5-11.8-69.7s-8.6-51.9-11.1-69.8c-1.3-9-2.3-16.2-2.9-21.2-.3-2.5-.5-4.5-.7-5.8a7.581,7.581,0,0,1-.1-2,6.889,6.889,0,0,1,.4,2c.2,1.3.5,3.3.9,5.8.8,5,1.9,12.2,3.3,21.2,2.8,17.9,7,42.5,11.5,69.7s8.5,51.9,11.4,69.8c1.4,8.9,2.5,16.2,3.3,21.2.4,2.5.6,4.4.8,5.8C2282.6,1064.7,2282.7,1065.4,2282.6,1065.4Z" fill="#fff"/>
        </g>
      </g>
    </g>
    <ellipse id="Ellipse_20" data-name="Ellipse 20" cx="479.5" cy="68.2" rx="479.5" ry="68.2" transform="translate(1145.4 1107.8)" fill="#a0b1d1" opacity="0.64"/>
    <ellipse id="Ellipse_21" data-name="Ellipse 21" cx="83.6" cy="49" rx="83.6" ry="49" transform="translate(985.8 1289.3)" fill="#a0b1d1" opacity="0.64"/>
    <ellipse id="Ellipse_22" data-name="Ellipse 22" cx="83.6" cy="49" rx="83.6" ry="49" transform="translate(2005.9 1240.3)" fill="#a0b1d1" opacity="0.64"/>
    <g id="Layer_17">
      <path id="Path_511" data-name="Path 511" d="M1670.6,1066s-6.3,49.9,17.2,78.1c23.4,28.2,24.6,46.6,24.6,46.6H1515.3s-6.9-10.9,15.6-33.7,51.1-49.9,55.7-67-.4-24.1-.4-24.1h86.2" fill="#2b373d"/>
    </g>
    <g id="Layer_4">
      <rect id="Rectangle_85" data-name="Rectangle 85" width="729.2" height="519.3" transform="translate(1241.8 487.5)" fill="#6596cc"/>
    </g>
    <g id="Layer_5">
      <path id="Path_512" data-name="Path 512" d="M1963.3,1068.1H1260.7a59.194,59.194,0,0,1-59.2-59.2V499.3a59.194,59.194,0,0,1,59.2-59.2h702.6a59.194,59.194,0,0,1,59.2,59.2v509.6A59.13,59.13,0,0,1,1963.3,1068.1Z" fill="#a0b1d1"/>
      <rect id="Rectangle_86" data-name="Rectangle 86" width="739.9" height="473.4" transform="translate(1241.8 487.5)" fill="#fff"/>
    </g>
    <g id="Layer_6">
      <path id="Path_513" data-name="Path 513" d="M1896.4,960.9H1314.3a34.185,34.185,0,0,1-34.2-34.2V558a34.185,34.185,0,0,1,34.2-34.2h582.1a34.185,34.185,0,0,1,34.2,34.2V926.7A34.185,34.185,0,0,1,1896.4,960.9Z" fill="#fff"/>
      <rect id="Rectangle_87" data-name="Rectangle 87" width="650.6" height="92.3" transform="translate(1280.1 615.9)" fill="#9bafcc"/>
      <path id="Path_514" data-name="Path 514" d="M1930.6,616.1H1281.1V555.5a31.709,31.709,0,0,1,31.7-31.7h591.3a26.588,26.588,0,0,1,26.6,26.6v65.7Z" fill="#8a9ab5"/>
      <rect id="Rectangle_88" data-name="Rectangle 88" width="650.6" height="94.6" transform="translate(1281.1 706.2)" fill="#a3b9d3"/>
      <rect id="Rectangle_89" data-name="Rectangle 89" width="646.9" height="106.2" transform="translate(1283.7 797.6)" fill="#b9d2ea"/>
    </g>
    <g id="Layer_13">
      <g id="Group_358" data-name="Group 358">
        <rect id="Rectangle_90" data-name="Rectangle 90" width="739.9" height="62.8" transform="matrix(1, 0.004, -0.004, 1, 1241.928, 902.419)" fill="#f0d62c"/>
        <path id="Path_515" data-name="Path 515" d="M1881.5,906l-45.4,61.2-41,.6,46.9-63.1,40.5.4Z" fill="#000500"/>
        <path id="Path_516" data-name="Path 516" d="M1957.8,906.1l-43.7,61.6-42.7.1,46.9-63.1,40.5.4Z" fill="#000500"/>
        <path id="Path_517" data-name="Path 517" d="M1802.3,905.5l-45.4,61.2-41,.5,46.9-63,40.5.3Z" fill="#000500"/>
        <path id="Path_518" data-name="Path 518" d="M1723.3,905.2l-45.4,61.2-41.1.5,46.9-63,40.6.3Z" fill="#000500"/>
        <path id="Path_519" data-name="Path 519" d="M1646.6,905.1l-45.4,61.2-41,.6,46.8-63.1,40.6.4Z" fill="#000500"/>
        <path id="Path_520" data-name="Path 520" d="M1566.4,904.8,1521,966l-41,.6,46.9-63.1,40.5.4Z" fill="#000500"/>
        <path id="Path_521" data-name="Path 521" d="M1485.3,904.5l-45.4,61.2-41,.6,46.9-63.1,40.5.4Z" fill="#000500"/>
        <path id="Path_522" data-name="Path 522" d="M1408.8,904l-45.4,61.2-41,.5,46.9-63,40.5.4Z" fill="#000500"/>
        <path id="Path_523" data-name="Path 523" d="M1337.9,903.7l-45.4,61.2-41.1.6,46.9-63.1,40.6.4Z" fill="#000500"/>
      </g>
      <ellipse id="Ellipse_23" data-name="Ellipse 23" cx="27.9" cy="24" rx="27.9" ry="24" transform="translate(1597 986.9)" fill="#f9fdff"/>
    </g>
    <g id="Layer_8">
      <ellipse id="Ellipse_24" data-name="Ellipse 24" cx="62.1" cy="60.3" rx="62.1" ry="60.3" transform="translate(1428.6 720.9)" fill="#e2eaf7"/>
      <ellipse id="Ellipse_25" data-name="Ellipse 25" cx="55.7" cy="54.9" rx="55.7" ry="54.9" transform="translate(1435 726.3)" fill="#a2aab5"/>
      <ellipse id="Ellipse_26" data-name="Ellipse 26" cx="48.3" cy="48.7" rx="48.3" ry="48.7" transform="translate(1441.5 732.6)" fill="#545861"/>
    </g>
    <g id="Layer_9">
      <ellipse id="Ellipse_27" data-name="Ellipse 27" cx="3.3" cy="3.1" rx="3.3" ry="3.1" transform="translate(1701.5 774.1)" fill="#4f6674"/>
      <ellipse id="Ellipse_28" data-name="Ellipse 28" cx="3.3" cy="3.1" rx="3.3" ry="3.1" transform="translate(1715.2 771)" fill="#4f6674"/>
      <ellipse id="Ellipse_29" data-name="Ellipse 29" cx="3.3" cy="3.1" rx="3.3" ry="3.1" transform="translate(1728.1 775.2)" fill="#4f6674"/>
    </g>
    <g id="Layer_14">
      <rect id="Rectangle_91" data-name="Rectangle 91" width="8.5" height="155.6" transform="translate(1734.3 554.4)" fill="#417991"/>
      <rect id="Rectangle_92" data-name="Rectangle 92" width="171.5" height="88.6" transform="translate(1742.9 554.4)" fill="#ef4747"/>
      <rect id="Rectangle_93" data-name="Rectangle 93" width="210.4" height="71.3" transform="translate(1755 563.4)" fill="none"/>
      <text id="_404" data-name="404" transform="translate(1754.985 634.433)" fill="#fff" font-size="100" font-family="MyriadPro-Regular, Myriad Pro"><tspan x="0" y="0">404</tspan></text>
    </g>
    <g id="Layer_10">
      <path id="Path_524" data-name="Path 524" d="M1790.4,716.6v70.8h-11.2s0-51.4-48.7-62.8-71.9,29.7-73.4,44.6-2.3,20.6-2.3,20.6h-11.6v19H1468l-53.7-20.9V740.3l51.8,24.8,55.3.4-.8-9.1-8.1-5.7,26.3-22.1,29.8,34.3h15.5L1557,726l-.8-92.5h96.6l.8,49.9Z" fill="#faca3e"/>
    </g>
    <g id="Layer_11">
      <path id="Path_525" data-name="Path 525" d="M1588.4,654.1h49.9v45.2l-49.9,15.2Z" fill="#eaf7ff"/>
      <path id="Path_526" data-name="Path 526" d="M1559.5,654.1H1578v62l-18.5,8.3Z" fill="#eaf7ff"/>
      <path id="Path_527" data-name="Path 527" d="M1661.4,691.3v10.4h31Z" fill="#e29c3a" opacity="0.45"/>
      <ellipse id="Ellipse_30" data-name="Ellipse 30" cx="18.6" cy="18.9" rx="18.6" ry="18.9" transform="translate(1480.1 769.2)" fill="#e29c3a" opacity="0.45"/>
      <ellipse id="Ellipse_31" data-name="Ellipse 31" cx="2.2" cy="2.4" rx="2.2" ry="2.4" transform="translate(1416.2 744.2)" fill="#e29c3a" opacity="0.45"/>
      <ellipse id="Ellipse_32" data-name="Ellipse 32" cx="2.2" cy="2.4" rx="2.2" ry="2.4" transform="translate(1415.3 782.1)" fill="#e29c3a" opacity="0.45"/>
      <rect id="Rectangle_94" data-name="Rectangle 94" width="96.7" height="10.8" transform="translate(1556.1 633.2)" fill="#4f6674"/>
      <rect id="Rectangle_95" data-name="Rectangle 95" width="19.1" height="1.9" transform="translate(1562.8 631.5)" fill="#5996b3"/>
      <path id="Path_528" data-name="Path 528" d="M1578.7,631.5h-12.3V626a4.012,4.012,0,0,1,4-4h4.2a4.055,4.055,0,0,1,4.1,4.1v5.4Z" fill="#ef4747"/>
      <rect id="Rectangle_96" data-name="Rectangle 96" width="6.5" height="3.3" transform="translate(1569.2 618.8)" fill="#ef4747"/>
      <rect id="Rectangle_97" data-name="Rectangle 97" width="61.1" height="15.3" transform="translate(1582 793.4)" fill="#e29c3a" opacity="0.45"/>
      <path id="Path_529" data-name="Path 529" d="M1582,654.1v82.8l17.2,21h40.2v2.8h-40.7l-20-23.1,1-83.5Z" fill="#e29c3a" opacity="0.45"/>
      <path id="Path_530" data-name="Path 530" d="M1761.7,711.3l26.3,7.5v20.1Z" fill="#e29c3a" opacity="0.45"/>
      <path id="Path_531" data-name="Path 531" d="M1652.2,787.4s-2.5-43.7,31.9-59.7,56.8-5.5,71.9,3.4,24.5,38,25.7,47.1l1.2,9.1Z" fill="#e29c3a" opacity="0.45"/>
    </g>
    <g id="Layer_12">
      <ellipse id="Ellipse_33" data-name="Ellipse 33" cx="62.8" cy="59.5" rx="62.8" ry="59.5" transform="translate(1653.2 722.5)" fill="#4f6674"/>
      <ellipse id="Ellipse_34" data-name="Ellipse 34" cx="39.2" cy="35.7" rx="39.2" ry="35.7" transform="translate(1676.3 748.5)" fill="#e29c3a"/>
      <ellipse id="Ellipse_35" data-name="Ellipse 35" cx="35.8" cy="33.3" rx="35.8" ry="33.3" transform="translate(1679 750.9)" fill="#fec240"/>
      <ellipse id="Ellipse_36" data-name="Ellipse 36" cx="14.1" cy="12.4" rx="14.1" ry="12.4" transform="translate(1701.3 772.7)" fill="#4f6674"/>
      <ellipse id="Ellipse_37" data-name="Ellipse 37" cx="3.1" cy="2.6" rx="3.1" ry="2.6" transform="translate(1695.1 777.3)" fill="#4f6674"/>
      <ellipse id="Ellipse_38" data-name="Ellipse 38" cx="3.1" cy="2.6" rx="3.1" ry="2.6" transform="translate(1695.1 787.5)" fill="#4f6674"/>
      <ellipse id="Ellipse_39" data-name="Ellipse 39" cx="3.1" cy="2.6" rx="3.1" ry="2.6" transform="translate(1711.2 798.5)" fill="#4f6674"/>
      <ellipse id="Ellipse_40" data-name="Ellipse 40" cx="3.1" cy="2.6" rx="3.1" ry="2.6" transform="translate(1701.1 795.3)" fill="#4f6674"/>
      <ellipse id="Ellipse_41" data-name="Ellipse 41" cx="3.1" cy="2.6" rx="3.1" ry="2.6" transform="translate(1731.3 777.7)" fill="#4f6674"/>
      <ellipse id="Ellipse_42" data-name="Ellipse 42" cx="3.1" cy="2.6" rx="3.1" ry="2.6" transform="translate(1725.6 769.2)" fill="#4f6674"/>
      <ellipse id="Ellipse_43" data-name="Ellipse 43" cx="3.1" cy="2.6" rx="3.1" ry="2.6" transform="translate(1714.4 764.9)" fill="#4f6674"/>
      <ellipse id="Ellipse_44" data-name="Ellipse 44" cx="3.1" cy="2.6" rx="3.1" ry="2.6" transform="translate(1702.9 767.5)" fill="#4f6674"/>
      <ellipse id="Ellipse_45" data-name="Ellipse 45" cx="3.1" cy="2.6" rx="3.1" ry="2.6" transform="translate(1730.7 786.8)" fill="#4f6674"/>
      <ellipse id="Ellipse_46" data-name="Ellipse 46" cx="3.1" cy="2.6" rx="3.1" ry="2.6" transform="translate(1724.4 795.3)" fill="#4f6674"/>
    </g>
    <g id="Layer_15">
      <path id="Path_532" data-name="Path 532" d="M1037.4,1329.4s5.4,6.1,15.8,8.5c10.4,2.5,10,10.6,10,10.6l-44.5.8v-22.1Z"/>
      <path id="Path_533" data-name="Path 533" d="M1093.7,1325.3s5.4,6.1,15.8,8.5c10.4,2.5,10,10.6,10,10.6l-44.5.8v-22.1Z"/>
      <path id="Path_534" data-name="Path 534" d="M1040.6,1179.5s-14.5,46.3-20.3,94.4-3.4,58.2-3.4,58.2h24.6s11.8-62.9,15.7-68l3.9-5.1s4.8,45.3,7.5,58.2l2.7,12.9,25.8-.7,7.7-134.4Z"/>
      <path id="Path_535" data-name="Path 535" d="M1185.4,1001.7a18.911,18.911,0,0,0,4.2-9c1-5.3,4.9-11.1,6.9-11.2s-.2,3.3-1,7c-.7,3.7.2,4.6,1,8.8.7,4.2-8,9.7-8,9.7Z" fill="#ffb279"/>
      <path id="Path_536" data-name="Path 536" d="M1173.6,1083.9a14.616,14.616,0,0,0,8.1-2.9c4.2-3,7.5-9.3,8.2-6.4s-6.4,9.5-5.2,10.3,15.1-2.9,15.2.7-4.3,10.5-7.4,10.2c-3-.4-21.4-4.6-21.4-4.6Z" fill="#ffb279"/>
      <path id="Path_537" data-name="Path 537" d="M1074.9,942.1s-18.8,4.2-29.7,42c-10.9,37.9-26.6,146.8-27,172.5-.5,25.7-4.8,31.8,2.9,35.5s32.4,21,65.2,19.9c32.8-1.2,30.9-1.6,30.9-4.2V1071.6l56.5,16.4,1.9-10.8s-56-30.3-60.4-40.3c-4.3-10-2.9-25-2.9-25s10.9,13.3,33.6,11.5c22.7-1.9,25.1-6.3,29.7-9.8s14.2-12.6,14.2-12.6l-2.9-8.6s-21.7,11.7-37.7,11-36.7-20.6-40.8-25.2-12.1-24.3-16.2-29.2C1088.2,943.8,1074.9,942.1,1074.9,942.1Z" fill="#faac40"/>
      <path id="Path_538" data-name="Path 538" d="M1093.1,943.3v16.6s-23.7-8.8-24.9-8.9c-1.2-.2,0-15.2,0-15.2Z" fill="#feab7a"/>
      <path id="Path_539" data-name="Path 539" d="M1068.8,938.9s12.3,7.7,23.4,6.4,11.3-12.5,10.7-20.3-6-29.2-6-29.2l-28.1,16.7Z" fill="#feab7a"/>
      <path id="Path_540" data-name="Path 540" d="M1096.8,891.9s-8.2-11.2-33.6-3.3-14,21-13.5,30.1,15.9,25.2,19.6,23.1c3.6-2.1,11.6-11.7,10.1-16.1s-3.4-6.8,1.2-8.4,7.5,4.4,9.7,3.3c2.2-1.2,4.1-8.1,4-15.1-.1-6.9,3.1-6.6,3.3-9.1A9.793,9.793,0,0,0,1096.8,891.9Z" fill="#173667"/>
      <path id="Path_541" data-name="Path 541" d="M1095.8,893.9l10.7-7.1s-28.1-26.9-58.4-8.7-9.4,53.6-9.4,53.6Z" fill="#faac40"/>
      <path id="Path_542" data-name="Path 542" d="M1091.7,963.8s-9,18.3-11.3,59.9l-2.3,41.5-46.4-4.1,1.5-18.4,31.2,3.4s4.4-44.9,10.9-64.6c6.5-19.8,10.6-24.2,10.6-24.2l7.1,2.6Z" fill="#fff"/>
      <path id="Path_543" data-name="Path 543" d="M1880,803.3l149.4,486,7.5-.9L1885.5,802.6Z"/>
      <path id="Path_544" data-name="Path 544" d="M1979.7,782l18.1,58.8,131.3,427.3,7.4-.9L1985.1,781.4Z"/>
      <path id="Path_545" data-name="Path 545" d="M1994.6,840.6c-65.4,25.7-86.2,35.7-86.2,35.7l2.5,7.9,87.4-38.6-1.8-6.6Z"/>
      <path id="Path_546" data-name="Path 546" d="M2015.4,911.5c-65.4,25.7-86.2,35.7-86.2,35.7l2.5,7.9,87.4-38.6-1.8-6.6Z"/>
      <path id="Path_547" data-name="Path 547" d="M2037.7,977c-65.4,25.7-86.2,35.7-86.2,35.7l2.5,7.9,87.4-38.6-1.8-6.6Z"/>
      <path id="Path_548" data-name="Path 548" d="M2063.3,1045.9c-70.1,27.2-92.4,37.7-92.4,37.7l2.6,8.4,93.7-40.8-1.9-6.9Z"/>
      <path id="Path_549" data-name="Path 549" d="M2085.6,1119.4c-70.1,27.2-92.4,37.7-92.4,37.7l2.6,8.4,93.7-40.8-1.9-6.9Z"/>
      <path id="Path_550" data-name="Path 550" d="M2102.4,1182.5c-70.1,27.2-92.4,37.7-92.4,37.7l2.6,8.4,93.7-40.8-1.9-6.9Z"/>
      <path id="Path_551" data-name="Path 551" d="M1976.2,970.4s4.3,12-3.2,16c-7.4,4.1-17,7.1-17,10v4.2l30-.8V973Z"/>
      <path id="Path_552" data-name="Path 552" d="M2007.5,968.2s.5,22-.9,23.2-11,7.5-7.6,11.2c3.5,3.7,13.2-3.3,18.5-12.6,5.2-9.3,8.4-7.5,7.6-12.2-.8-4.6-10.7-14.7-10.7-14.7Z"/>
      <path id="Path_553" data-name="Path 553" d="M2006.1,875.6s8.9,29.9,12.5,61,2.1,37.6,2.1,37.6h-15.2s-7.3-40.6-9.7-43.9l-2.4-3.3s-3,29.3-4.6,37.6l-1.6,8.3-15.9-.5-4.8-86.8Z"/>
      <path id="Path_554" data-name="Path 554" d="M1916.8,751.6a13.393,13.393,0,0,1-2.6-5.8c-.6-3.4-3.1-7.2-4.2-7.2-1.2-.1.1,2.1.6,4.5.4,2.4-.1,2.9-.6,5.7-.4,2.7,4.9,6.3,4.9,6.3Z" fill="#ffb279"/>
      <path id="Path_555" data-name="Path 555" d="M1924.1,804.8a8.386,8.386,0,0,1-5-1.9c-2.6-2-4.6-6-5.1-4.2-.4,1.9,3.9,6.1,3.2,6.6s-9.3-1.9-9.4.5c-.1,2.3,2.7,6.8,4.5,6.6,1.9-.2,13.2-2.9,13.2-2.9Z" fill="#ffb279"/>
      <path id="Path_556" data-name="Path 556" d="M1985.4,716.8s11.6,2.7,18.3,27.2,16.4,94.8,16.7,111.4,3,20.5-1.8,22.9-19.9,13.6-40.2,12.8c-20.2-.8-19-1.1-19-2.7v-88L1924.6,811l-1.2-7s34.5-19.6,37.2-26.1,1.8-16.2,1.8-16.2-6.7,8.6-20.7,7.4-15.5-4.1-18.3-6.3-8.8-8.2-8.8-8.2l1.8-5.6s13.4,7.5,23.2,7.1c9.8-.5,22.6-13.3,25.1-16.3s7.4-15.7,10-18.9C1977.2,717.9,1985.4,716.8,1985.4,716.8Z" fill="#faac40"/>
      <path id="Path_557" data-name="Path 557" d="M1973.7,713.9v10.7s14.6-5.7,15.3-5.8,0-9.8,0-9.8Z" fill="#feab7a"/>
      <path id="Path_558" data-name="Path 558" d="M1988.7,711.1s-7.6,5-14.4,4.2-7-8.1-6.6-13.1c.4-5.1,3.7-18.9,3.7-18.9l17.3,10.8Z" fill="#feab7a"/>
      <path id="Path_559" data-name="Path 559" d="M1971.4,680.7s5.1-7.2,20.7-2.1,8.6,13.6,8.3,19.5-9.8,16.3-12.1,14.9c-2.2-1.4-7.1-7.5-6.2-10.4s2.1-4.4-.7-5.4c-2.8-1.1-4.6,2.9-6,2.1-1.3-.8-2.5-5.3-2.5-9.7s-1.9-4.2-2-5.9A6.886,6.886,0,0,1,1971.4,680.7Z" fill="#173667"/>
      <path id="Path_560" data-name="Path 560" d="M1972.1,682l-6.6-4.6s17.3-17.4,36-5.6,5.8,34.6,5.8,34.6Z" fill="#faac40"/>
      <path id="Path_561" data-name="Path 561" d="M1974.6,727.1s5.6,11.8,7,38.7l1.4,26.8,28.6-2.6-.9-11.9-19.2,2.2s-2.7-29-6.7-41.8-6.6-15.6-6.6-15.6l-4.4,1.7Z" fill="#fff"/>
    </g>
  </g>
</svg>
