<svg xmlns="http://www.w3.org/2000/svg" width="269.6" height="170.8" viewBox="0 0 269.6 170.8"> <g id="Group_18" data-name="Group 18" transform="translate(-2458.8 -8897.801)"> <path id="Path_47" data-name="Path 47" d="M201,25.2a52.511,52.511,0,0,0-.2,6.9c13.3.2,20.3,2.6,22.5,4.2-.4,10.3-2,51.5-3,74.9a115.512,115.512,0,0,0-13-.7c-12.4,0-28.7,2.1-42.7,10.7l.2-13.9v-.1l-.3-50.6c5.9-8.3,15.5-19.5,21.2-21.5a12.148,12.148,0,0,1,2.4-.7,30.175,30.175,0,0,1,7.3-1.9,2.506,2.506,0,0,0,.7-.4h1.6c0-2.3,0-4.6.2-6.9-2.1,0-3.5.1-3.5.1-6.8,3.6-4.5.9-11,3.3-10.9,4-25.7,25.9-25.7,25.9l.4,52.8-.4,28.5c14.1-15.1,34.6-18.3,49.6-18.3a98.752,98.752,0,0,1,19.4,1.8S230,35.8,230,34.2C226.6,26.8,210.3,25.4,201,25.2Z" transform="translate(2443.6 8873.4)" fill="#231f20"/> <path id="Path_48" data-name="Path 48" d="M118.8,28.1a14.682,14.682,0,0,0-5.6-1h-2a13.247,13.247,0,0,1-6.9-1.9s-.6,0-1.7-.1c0,.8-.1,1.7-.1,2.5a17.7,17.7,0,0,1-.1,2.3v1.7a6.107,6.107,0,0,1,1.3.3,9.971,9.971,0,0,1,1.6.2,21.57,21.57,0,0,1,5.1.6,11.176,11.176,0,0,1,2.5,1.1h.3a8.141,8.141,0,0,1,3.3.6c5.5,2,14.8,14.6,20.1,23.5v48.7l-.4,13.9c-14.3-9.2-32-11.4-44.8-11.4a116.925,116.925,0,0,0-13,.7c-.9-23-2.6-63.6-3-73.8,2.2-1.6,9.2-3.9,22.6-4.1.4-.1.9-.2,1.3-.3v-.4c0-1.9.4-4.1-.1-6V25c-9,.1-27,1.1-30.7,8.7,0,1.6,3.3,83.8,3.3,83.8a100.031,100.031,0,0,1,19.4-1.8c15,0,35.6,3.2,49.6,18l2.3-27V56.1C143.4,56.1,129.7,32,118.8,28.1Z" transform="translate(2443.6 8873.4)" fill="#231f20"/> <path id="Path_49" data-name="Path 49" d="M123.9,63.4a1.421,1.421,0,0,1-.6-.2c-.1-.1-13.3-12.1-34.9-2.2a.828.828,0,0,1-.7-1.5c22.7-10.4,36.6,2.4,36.8,2.5a.817.817,0,0,1,0,1.2,1.072,1.072,0,0,1-.6.2" transform="translate(2443.6 8873.4)" fill="#231f20"/> <path id="Path_50" data-name="Path 50" d="M123.9,79.5a1.421,1.421,0,0,1-.6-.2c-.1-.1-13.3-12.1-34.9-2.2a.828.828,0,1,1-.7-1.5c22.7-10.4,36.6,2.4,36.8,2.5a.817.817,0,0,1,0,1.2,1.072,1.072,0,0,1-.6.2" transform="translate(2443.6 8873.4)" fill="#231f20"/> <path id="Path_51" data-name="Path 51" d="M123.9,95.7a1.421,1.421,0,0,1-.6-.2c-.1-.1-13.3-12.1-34.9-2.2a.828.828,0,0,1-.7-1.5c22.7-10.4,36.6,2.4,36.8,2.5a.817.817,0,0,1,0,1.2,1.072,1.072,0,0,1-.6.2" transform="translate(2443.6 8873.4)" fill="#231f20"/> <path id="Path_52" data-name="Path 52" d="M15.3,163.4h4.9v2.9a6.066,6.066,0,0,1,2.1-2.6,4.979,4.979,0,0,1,2.9-.9,5.253,5.253,0,0,1,2.3.6l-1.8,4.9a4.506,4.506,0,0,0-1.7-.5,2.49,2.49,0,0,0-2.2,1.6c-.6,1.1-.9,3.2-.9,6.4v10.3H15.2V163.4Z" transform="translate(2443.6 8873.4)" fill="#231f20"/> <path id="Path_53" data-name="Path 53" d="M53.2,176.5H34.8a6.8,6.8,0,0,0,2.1,3.9,6.464,6.464,0,0,0,4.4,1.4,7.543,7.543,0,0,0,5.5-2.2l4.8,2.3a11.1,11.1,0,0,1-4.3,3.8,13.965,13.965,0,0,1-6,1.2A11.63,11.63,0,0,1,29.2,175a11.755,11.755,0,0,1,3.4-8.7,11.232,11.232,0,0,1,8.4-3.4,11.83,11.83,0,0,1,8.8,3.4,12.623,12.623,0,0,1,3.4,9.1ZM47.5,172a5.761,5.761,0,0,0-2.2-3.1,6.452,6.452,0,0,0-3.9-1.2,6.769,6.769,0,0,0-4.2,1.3,6.6,6.6,0,0,0-2.1,3Z" transform="translate(2443.6 8873.4)" fill="#231f20"/> <path id="Path_54" data-name="Path 54" d="M75.5,163.4h5.7v22.8H75.5v-2.4a10.239,10.239,0,0,1-3.4,2.3,8.729,8.729,0,0,1-3.7.7,9.976,9.976,0,0,1-7.6-3.4,12.121,12.121,0,0,1-3.2-8.5,12.375,12.375,0,0,1,3.1-8.7,10.171,10.171,0,0,1,7.6-3.4,10.065,10.065,0,0,1,3.9.8,10.375,10.375,0,0,1,3.3,2.3v-2.5Zm-6,4.7a5.618,5.618,0,0,0-4.4,1.9,6.813,6.813,0,0,0-1.8,4.8,6.89,6.89,0,0,0,1.8,4.9,5.762,5.762,0,0,0,4.4,1.9,5.826,5.826,0,0,0,4.5-1.9,6.89,6.89,0,0,0,1.8-4.9A6.487,6.487,0,0,0,74,170a5.826,5.826,0,0,0-4.5-1.9" transform="translate(2443.6 8873.4)" fill="#231f20"/> <path id="Path_55" data-name="Path 55" d="M104.7,154.6h5.7v31.6h-5.7v-2.4a10.239,10.239,0,0,1-3.4,2.3,8.729,8.729,0,0,1-3.7.7,9.976,9.976,0,0,1-7.6-3.4,12.121,12.121,0,0,1-3.2-8.5,12.375,12.375,0,0,1,3.1-8.7,10.171,10.171,0,0,1,7.6-3.4,10.065,10.065,0,0,1,3.9.8,10.375,10.375,0,0,1,3.3,2.3V154.6Zm-6,13.5a5.618,5.618,0,0,0-4.4,1.9,6.813,6.813,0,0,0-1.8,4.8,6.89,6.89,0,0,0,1.8,4.9,5.762,5.762,0,0,0,4.4,1.9,5.826,5.826,0,0,0,4.5-1.9,6.89,6.89,0,0,0,1.8-4.9,6.487,6.487,0,0,0-1.8-4.8,5.826,5.826,0,0,0-4.5-1.9" transform="translate(2443.6 8873.4)" fill="#231f20"/> <path id="Path_56" data-name="Path 56" d="M119.3,154a3.677,3.677,0,0,1,2.6,6.3,3.581,3.581,0,0,1-2.5,1.1,3.631,3.631,0,0,1-2.6-1.1,3.693,3.693,0,0,1-1.1-2.7,3.631,3.631,0,0,1,1.1-2.6,3.739,3.739,0,0,1,2.5-1m-2.8,9.4h5.7v22.8h-5.7Z" transform="translate(2443.6 8873.4)" fill="#231f20"/> <path id="Path_57" data-name="Path 57" d="M128.2,163.4h5.7v2.3a13.814,13.814,0,0,1,3.5-2.3,9.059,9.059,0,0,1,3.2-.6,7.849,7.849,0,0,1,5.8,2.4c1.3,1.3,2,3.3,2,6v15.1h-5.7v-10a21.344,21.344,0,0,0-.4-5.4,3.223,3.223,0,0,0-1.3-2,3.408,3.408,0,0,0-2.2-.7,4.234,4.234,0,0,0-3,1.2,6.167,6.167,0,0,0-1.7,3.2,21.84,21.84,0,0,0-.3,4.6v9.1h-5.7V163.4Z" transform="translate(2443.6 8873.4)" fill="#231f20"/> <path id="Path_58" data-name="Path 58" d="M171.7,163.4h5.7V183c0,3.9-.8,6.7-2.3,8.5-2.1,2.5-5.2,3.7-9.4,3.7a17.949,17.949,0,0,1-5.6-.8,11.351,11.351,0,0,1-3.9-2.5,10.514,10.514,0,0,1-2.3-4h6.3a7.123,7.123,0,0,0,2.2,1.5,9.587,9.587,0,0,0,3.1.5,7.879,7.879,0,0,0,3.7-.7,5.065,5.065,0,0,0,2-1.8,9.3,9.3,0,0,0,.6-3.9,10.8,10.8,0,0,1-3.2,2.2,11.179,11.179,0,0,1-3.8.7,10.505,10.505,0,0,1-7.8-3.3,11.709,11.709,0,0,1-3.2-8.4,11.45,11.45,0,0,1,3.4-8.7,9.883,9.883,0,0,1,7.3-3,9.039,9.039,0,0,1,3.7.7,12.182,12.182,0,0,1,3.5,2.4Zm-5.9,4.8a6.105,6.105,0,0,0-4.5,1.8,6.177,6.177,0,0,0-1.8,4.6,6.409,6.409,0,0,0,1.8,4.7,6.105,6.105,0,0,0,4.5,1.8,5.881,5.881,0,0,0,4.4-1.8,6.193,6.193,0,0,0,1.7-4.7,6.519,6.519,0,0,0-1.7-4.6,5.729,5.729,0,0,0-4.4-1.8" transform="translate(2443.6 8873.4)" fill="#231f20"/> <path id="Path_59" data-name="Path 59" d="M193.9,163.4h4.9v2.9a6.066,6.066,0,0,1,2.1-2.6,4.979,4.979,0,0,1,2.9-.9,5.253,5.253,0,0,1,2.3.6l-1.8,4.9a4.506,4.506,0,0,0-1.7-.5,2.49,2.49,0,0,0-2.2,1.6c-.6,1.1-.9,3.2-.9,6.4v10.3h-5.7V163.4Z" transform="translate(2443.6 8873.4)" fill="#231f20"/> <path id="Path_60" data-name="Path 60" d="M212,154a3.677,3.677,0,0,1,2.6,6.3,3.581,3.581,0,0,1-2.5,1.1,3.631,3.631,0,0,1-2.6-1.1,3.693,3.693,0,0,1-1.1-2.7,3.631,3.631,0,0,1,1.1-2.6,3.739,3.739,0,0,1,2.5-1m-2.8,9.4h5.7v22.8h-5.7Z" transform="translate(2443.6 8873.4)" fill="#231f20"/> <path id="Path_61" data-name="Path 61" d="M237.8,163.4h5.7V183c0,3.9-.8,6.7-2.3,8.5-2.1,2.5-5.2,3.7-9.4,3.7a17.949,17.949,0,0,1-5.6-.8,11.351,11.351,0,0,1-3.9-2.5,10.514,10.514,0,0,1-2.3-4h6.3a7.123,7.123,0,0,0,2.2,1.5,9.587,9.587,0,0,0,3.1.5,7.879,7.879,0,0,0,3.7-.7,5.065,5.065,0,0,0,2-1.8,9.3,9.3,0,0,0,.6-3.9,10.8,10.8,0,0,1-3.2,2.2,11.179,11.179,0,0,1-3.8.7,10.505,10.505,0,0,1-7.8-3.3,11.709,11.709,0,0,1-3.2-8.4,11.45,11.45,0,0,1,3.4-8.7,9.883,9.883,0,0,1,7.3-3,9.039,9.039,0,0,1,3.7.7,12.182,12.182,0,0,1,3.5,2.4Zm-5.9,4.8a6.105,6.105,0,0,0-4.5,1.8,6.177,6.177,0,0,0-1.8,4.6,6.409,6.409,0,0,0,1.8,4.7,6.105,6.105,0,0,0,4.5,1.8,5.881,5.881,0,0,0,4.4-1.8,6.193,6.193,0,0,0,1.7-4.7,6.519,6.519,0,0,0-1.7-4.6,5.729,5.729,0,0,0-4.4-1.8" transform="translate(2443.6 8873.4)" fill="#231f20"/> <path id="Path_62" data-name="Path 62" d="M249.3,154.6H255v11.1a11.606,11.606,0,0,1,3.4-2.2,8.29,8.29,0,0,1,3.4-.7,7.764,7.764,0,0,1,5.7,2.3,8.345,8.345,0,0,1,2,6v15.1h-5.6v-10a22.391,22.391,0,0,0-.4-5.4,4.442,4.442,0,0,0-1.3-2.1,3.506,3.506,0,0,0-2.3-.7,4.07,4.07,0,0,0-3,1.2,6.255,6.255,0,0,0-1.7,3.1,22.354,22.354,0,0,0-.3,4.7v9.2h-5.7V154.6Z" transform="translate(2443.6 8873.4)" fill="#231f20"/> <path id="Path_63" data-name="Path 63" d="M275.7,155h5.7v8.4h3.4v5h-3.4v17.8h-5.7V168.4h-2.9v-5h2.9Z" transform="translate(2443.6 8873.4)" fill="#231f20"/> <path id="Path_64" data-name="Path 64" d="M197.9,24.4c-13.8.2-22.2,3.3-32.7,19V27.2H152.3V135.7h12.9V115.8c0-9.5.1-19.3-.1-28.9-.2-13.9,1.1-28.5,11.6-41.5a34.715,34.715,0,0,1,11.1-9.3,90.989,90.989,0,0,1,9.8-3.1A81.437,81.437,0,0,1,197.9,24.4Z" transform="translate(2443.6 8873.4)" fill="#231f20"/> <path id="Path_66" data-name="Path 66" d="M135.4,27.2V43.4c-10.5-15.7-18.8-18.8-32.6-19,0,1.1-.1,2.2-.1,3.3a17.7,17.7,0,0,1-.1,2.3v2.9a74.39,74.39,0,0,1,10.2,3.2,37.242,37.242,0,0,1,11.1,9.3c10.4,13,11.7,27.6,11.6,41.5-.1,9.6-.1,19.4-.1,28.9v19.8h12.9V27.2Z" transform="translate(2443.6 8873.4)" fill="#231f20"/> <path id="Path_69" data-name="Path 69" d="M181.1,80.2l-10.7-7.1-.7.4,11.7,14.7.2.2.5.1a89.074,89.074,0,0,1,17.2-14.1,126.418,126.418,0,0,1,18.7-10l-.4-.7a77.235,77.235,0,0,0-15.2,4.9c-9.3,3.9-18.6,9.9-19.2,10.1C182.8,78.9,181.1,80.2,181.1,80.2Z" transform="translate(2443.6 8873.4)" fill="#231f20"/> </g> </svg>
